<mxfile host="app.diagrams.net" agent="Mozilla/5.0 (Windows NT 10.0; Win64; x64) AppleWebKit/537.36 (KHTML, like Gecko) Chrome/131.0.0.0 Safari/537.36" version="24.8.8">
  <diagram name="Page-1" id="tId3PJ6NE57gT4DDZ_HB">
    <mxGraphModel dx="2403" dy="1646" grid="1" gridSize="10" guides="1" tooltips="1" connect="1" arrows="1" fold="1" page="0" pageScale="1" pageWidth="1169" pageHeight="827" math="1" shadow="0">
      <root>
        <mxCell id="0" />
        <mxCell id="1" parent="0" />
        <mxCell id="8gOSBzjKRAawWuFs5ZYo-1" value="" style="endArrow=none;dashed=1;html=1;rounded=0;strokeWidth=3;" parent="1" edge="1">
          <mxGeometry width="50" height="50" relative="1" as="geometry">
            <mxPoint x="975" y="740" as="sourcePoint" />
            <mxPoint x="980" y="-150" as="targetPoint" />
          </mxGeometry>
        </mxCell>
        <mxCell id="8gOSBzjKRAawWuFs5ZYo-2" value="" style="rounded=1;whiteSpace=wrap;html=1;strokeWidth=2;fillWeight=4;hachureGap=8;hachureAngle=45;fillColor=#9cd9ce;sketch=1;opacity=20;fillStyle=zigzag;" parent="1" vertex="1">
          <mxGeometry x="5" y="370" width="1765" height="320" as="geometry" />
        </mxCell>
        <mxCell id="8gOSBzjKRAawWuFs5ZYo-3" value="" style="rounded=1;whiteSpace=wrap;html=1;strokeWidth=2;fillWeight=4;hachureGap=8;hachureAngle=45;fillColor=#1ba1e2;sketch=1;opacity=10;fillStyle=zigzag;" parent="1" vertex="1">
          <mxGeometry x="5" y="-110" width="1775" height="322.53" as="geometry" />
        </mxCell>
        <mxCell id="8gOSBzjKRAawWuFs5ZYo-4" value="" style="rounded=1;whiteSpace=wrap;html=1;strokeWidth=2;fillWeight=4;hachureGap=8;hachureAngle=45;fillColor=#1ba1e2;sketch=1;opacity=30;" parent="1" vertex="1">
          <mxGeometry x="40" y="-70" width="250" height="270" as="geometry" />
        </mxCell>
        <mxCell id="8gOSBzjKRAawWuFs5ZYo-5" value="" style="verticalAlign=bottom;endArrow=block;edgeStyle=elbowEdgeStyle;elbow=vertical;curved=0;rounded=0;fontSize=24;strokeWidth=2;align=center;horizontal=1;fontColor=default;labelBackgroundColor=default;exitX=0.5;exitY=1;exitDx=0;exitDy=0;entryX=0.153;entryY=-0.054;entryDx=0;entryDy=0;entryPerimeter=0;" parent="1" source="8gOSBzjKRAawWuFs5ZYo-4" target="8gOSBzjKRAawWuFs5ZYo-46" edge="1">
          <mxGeometry relative="1" as="geometry">
            <Array as="points">
              <mxPoint x="153.69" y="280" />
            </Array>
            <mxPoint x="153.69" y="200" as="sourcePoint" />
            <mxPoint x="153.69" y="320" as="targetPoint" />
            <mxPoint as="offset" />
          </mxGeometry>
        </mxCell>
        <mxCell id="8gOSBzjKRAawWuFs5ZYo-6" value="&lt;div style=&quot;text-align: start;&quot;&gt;&lt;br&gt;&lt;/div&gt;" style="edgeLabel;html=1;align=center;verticalAlign=middle;resizable=0;points=[];" parent="8gOSBzjKRAawWuFs5ZYo-5" vertex="1" connectable="0">
          <mxGeometry x="-0.1008" y="-3" relative="1" as="geometry">
            <mxPoint x="3" y="1" as="offset" />
          </mxGeometry>
        </mxCell>
        <mxCell id="8gOSBzjKRAawWuFs5ZYo-7" value="&lt;span style=&quot;font-family: &amp;quot;Cambria Math&amp;quot;; font-size: 26px; text-align: start; white-space: normal;&quot;&gt;$$\Theta \; \Sigma$$&lt;/span&gt;" style="edgeLabel;html=1;align=center;verticalAlign=middle;resizable=0;points=[];labelBackgroundColor=none;" parent="8gOSBzjKRAawWuFs5ZYo-5" vertex="1" connectable="0">
          <mxGeometry x="-0.1093" y="-1" relative="1" as="geometry">
            <mxPoint y="6" as="offset" />
          </mxGeometry>
        </mxCell>
        <mxCell id="8gOSBzjKRAawWuFs5ZYo-8" value="" style="group" parent="1" vertex="1" connectable="0">
          <mxGeometry x="39" y="385" width="610" height="285" as="geometry" />
        </mxCell>
        <mxCell id="8gOSBzjKRAawWuFs5ZYo-9" value="" style="rounded=1;whiteSpace=wrap;html=1;strokeWidth=2;fillWeight=4;hachureGap=8;hachureAngle=45;fillColor=#9cd9ce;sketch=1;opacity=50;" parent="8gOSBzjKRAawWuFs5ZYo-8" vertex="1">
          <mxGeometry y="19" width="420" height="270" as="geometry" />
        </mxCell>
        <mxCell id="8gOSBzjKRAawWuFs5ZYo-10" value="&lt;b&gt;&lt;font style=&quot;font-size: 30px;&quot;&gt;...&lt;/font&gt;&lt;/b&gt;" style="text;html=1;align=center;verticalAlign=middle;whiteSpace=wrap;rounded=0;" parent="8gOSBzjKRAawWuFs5ZYo-8" vertex="1">
          <mxGeometry x="280.99555555555554" y="194" width="40.66666666666667" height="30" as="geometry" />
        </mxCell>
        <mxCell id="8gOSBzjKRAawWuFs5ZYo-11" value="" style="group" parent="8gOSBzjKRAawWuFs5ZYo-8" vertex="1" connectable="0">
          <mxGeometry x="31" y="25" width="166.92571428571424" height="130" as="geometry" />
        </mxCell>
        <mxCell id="8gOSBzjKRAawWuFs5ZYo-12" value="" style="group" parent="8gOSBzjKRAawWuFs5ZYo-11" vertex="1" connectable="0">
          <mxGeometry x="47.96000000000001" width="118.96571428571423" height="130" as="geometry" />
        </mxCell>
        <mxCell id="8gOSBzjKRAawWuFs5ZYo-13" value="" style="rounded=1;whiteSpace=wrap;html=1;absoluteArcSize=1;arcSize=14;strokeWidth=2;labelPosition=center;verticalLabelPosition=top;align=center;verticalAlign=bottom;" parent="8gOSBzjKRAawWuFs5ZYo-12" vertex="1">
          <mxGeometry x="-36.96" y="26" width="169" height="100" as="geometry" />
        </mxCell>
        <mxCell id="8gOSBzjKRAawWuFs5ZYo-14" value="" style="group" parent="8gOSBzjKRAawWuFs5ZYo-12" vertex="1" connectable="0">
          <mxGeometry x="30.32571428571422" y="41" width="100" height="70" as="geometry" />
        </mxCell>
        <mxCell id="8gOSBzjKRAawWuFs5ZYo-15" value="" style="verticalLabelPosition=middle;verticalAlign=middle;html=1;shape=trapezoid;perimeter=trapezoidPerimeter;whiteSpace=wrap;size=0.23;arcSize=10;flipV=1;labelPosition=center;align=center;rotation=-90;fillColor=#b0e3e6;strokeColor=#0e8088;" parent="8gOSBzjKRAawWuFs5ZYo-14" vertex="1">
          <mxGeometry x="-14.285714285714285" y="14" width="71.42857142857143" height="42" as="geometry" />
        </mxCell>
        <mxCell id="8gOSBzjKRAawWuFs5ZYo-16" value="&lt;font style=&quot;font-size: 24px;&quot;&gt;$$\theta_1$$&lt;/font&gt;" style="text;html=1;align=center;verticalAlign=middle;whiteSpace=wrap;rounded=0;" parent="8gOSBzjKRAawWuFs5ZYo-14" vertex="1">
          <mxGeometry x="0.7142857142857143" y="24.5" width="42.857142857142854" height="21" as="geometry" />
        </mxCell>
        <mxCell id="8gOSBzjKRAawWuFs5ZYo-17" value="&lt;font style=&quot;font-size: 16px;&quot; face=&quot;Playwrite Netherland&quot;&gt;$$\mathcal{L_U}$$&lt;/font&gt;" style="text;html=1;align=center;verticalAlign=middle;whiteSpace=wrap;rounded=0;" parent="8gOSBzjKRAawWuFs5ZYo-12" vertex="1">
          <mxGeometry x="4.289999999999999" y="76" width="18.75" height="20" as="geometry" />
        </mxCell>
        <mxCell id="8gOSBzjKRAawWuFs5ZYo-18" value="&lt;font size=&quot;1&quot;&gt;&lt;b style=&quot;font-size: 18px;&quot;&gt;Client&lt;/b&gt;&lt;/font&gt;" style="text;html=1;align=center;verticalAlign=middle;resizable=0;points=[];autosize=1;strokeColor=none;fillColor=none;" parent="8gOSBzjKRAawWuFs5ZYo-12" vertex="1">
          <mxGeometry x="12.54" y="-4" width="70" height="30" as="geometry" />
        </mxCell>
        <mxCell id="8gOSBzjKRAawWuFs5ZYo-19" value="&lt;font style=&quot;font-size: 24px;&quot;&gt;$$\Sigma_1$$&lt;/font&gt;" style="rounded=0;whiteSpace=wrap;html=1;fillColor=#CCE5FF;strokeColor=none;strokeWidth=3;" parent="8gOSBzjKRAawWuFs5ZYo-12" vertex="1">
          <mxGeometry x="92.03571428571422" y="57.5" width="36.43" height="37" as="geometry" />
        </mxCell>
        <mxCell id="8gOSBzjKRAawWuFs5ZYo-20" value="" style="edgeStyle=orthogonalEdgeStyle;rounded=0;orthogonalLoop=1;jettySize=auto;html=1;endSize=2;dashed=1;jumpSize=6;" parent="8gOSBzjKRAawWuFs5ZYo-12" edge="1">
          <mxGeometry relative="1" as="geometry">
            <mxPoint x="72.75428571428577" y="76.00000000000023" as="sourcePoint" />
            <mxPoint x="92.03999999999999" y="76" as="targetPoint" />
          </mxGeometry>
        </mxCell>
        <mxCell id="8gOSBzjKRAawWuFs5ZYo-21" value="" style="group" parent="8gOSBzjKRAawWuFs5ZYo-11" vertex="1" connectable="0">
          <mxGeometry x="23.04" y="41" width="20.250000000000007" height="75" as="geometry" />
        </mxCell>
        <mxCell id="8gOSBzjKRAawWuFs5ZYo-22" value="" style="shape=cylinder;whiteSpace=wrap;html=1;boundedLbl=1;backgroundOutline=1;" parent="8gOSBzjKRAawWuFs5ZYo-21" vertex="1">
          <mxGeometry y="21.428571428571427" width="20" height="28.571428571428573" as="geometry" />
        </mxCell>
        <mxCell id="8gOSBzjKRAawWuFs5ZYo-23" value="&lt;font style=&quot;font-size: 16px;&quot;&gt;$$X_1$$&lt;/font&gt;" style="text;html=1;align=center;verticalAlign=middle;whiteSpace=wrap;rounded=0;" parent="8gOSBzjKRAawWuFs5ZYo-21" vertex="1">
          <mxGeometry x="-0.4999999999999929" y="50" width="20.5" height="30" as="geometry" />
        </mxCell>
        <mxCell id="8gOSBzjKRAawWuFs5ZYo-24" value="" style="edgeStyle=orthogonalEdgeStyle;rounded=0;orthogonalLoop=1;jettySize=auto;html=1;entryX=-0.051;entryY=0.538;entryDx=0;entryDy=0;entryPerimeter=0;" parent="8gOSBzjKRAawWuFs5ZYo-11" source="8gOSBzjKRAawWuFs5ZYo-22" target="8gOSBzjKRAawWuFs5ZYo-16" edge="1">
          <mxGeometry relative="1" as="geometry">
            <Array as="points" />
          </mxGeometry>
        </mxCell>
        <mxCell id="8gOSBzjKRAawWuFs5ZYo-25" value="2" style="text;strokeColor=none;fillColor=none;html=1;fontSize=24;fontStyle=1;verticalAlign=middle;align=center;" parent="8gOSBzjKRAawWuFs5ZYo-8" vertex="1">
          <mxGeometry x="11" y="19" width="30" height="40" as="geometry" />
        </mxCell>
        <mxCell id="8gOSBzjKRAawWuFs5ZYo-26" value="" style="group" parent="8gOSBzjKRAawWuFs5ZYo-8" vertex="1" connectable="0">
          <mxGeometry x="31" y="155" width="166.92571428571424" height="130" as="geometry" />
        </mxCell>
        <mxCell id="8gOSBzjKRAawWuFs5ZYo-27" value="" style="group" parent="8gOSBzjKRAawWuFs5ZYo-26" vertex="1" connectable="0">
          <mxGeometry x="47.96000000000001" width="118.96571428571423" height="130" as="geometry" />
        </mxCell>
        <mxCell id="8gOSBzjKRAawWuFs5ZYo-28" value="" style="rounded=1;whiteSpace=wrap;html=1;absoluteArcSize=1;arcSize=14;strokeWidth=2;labelPosition=center;verticalLabelPosition=top;align=center;verticalAlign=bottom;" parent="8gOSBzjKRAawWuFs5ZYo-27" vertex="1">
          <mxGeometry x="-36.96" y="26" width="169" height="100" as="geometry" />
        </mxCell>
        <mxCell id="8gOSBzjKRAawWuFs5ZYo-29" value="" style="group" parent="8gOSBzjKRAawWuFs5ZYo-27" vertex="1" connectable="0">
          <mxGeometry x="30.32571428571422" y="41" width="100" height="70" as="geometry" />
        </mxCell>
        <mxCell id="8gOSBzjKRAawWuFs5ZYo-30" value="" style="verticalLabelPosition=middle;verticalAlign=middle;html=1;shape=trapezoid;perimeter=trapezoidPerimeter;whiteSpace=wrap;size=0.23;arcSize=10;flipV=1;labelPosition=center;align=center;rotation=-90;fillColor=#b0e3e6;strokeColor=#0e8088;" parent="8gOSBzjKRAawWuFs5ZYo-29" vertex="1">
          <mxGeometry x="-14.285714285714285" y="14" width="71.42857142857143" height="42" as="geometry" />
        </mxCell>
        <mxCell id="8gOSBzjKRAawWuFs5ZYo-31" value="&lt;font style=&quot;font-size: 24px;&quot;&gt;$$\theta_M$$&lt;/font&gt;" style="text;html=1;align=center;verticalAlign=middle;whiteSpace=wrap;rounded=0;" parent="8gOSBzjKRAawWuFs5ZYo-29" vertex="1">
          <mxGeometry x="0.7142857142857143" y="24.5" width="42.857142857142854" height="21" as="geometry" />
        </mxCell>
        <mxCell id="8gOSBzjKRAawWuFs5ZYo-32" value="&lt;font style=&quot;font-size: 16px;&quot; face=&quot;Playwrite Netherland&quot;&gt;$$\mathcal{L_U}$$&lt;/font&gt;" style="text;html=1;align=center;verticalAlign=middle;whiteSpace=wrap;rounded=0;" parent="8gOSBzjKRAawWuFs5ZYo-27" vertex="1">
          <mxGeometry x="4.289999999999999" y="76" width="18.75" height="20" as="geometry" />
        </mxCell>
        <mxCell id="8gOSBzjKRAawWuFs5ZYo-33" value="&lt;font size=&quot;1&quot;&gt;&lt;b style=&quot;font-size: 18px;&quot;&gt;Client&lt;/b&gt;&lt;/font&gt;" style="text;html=1;align=center;verticalAlign=middle;resizable=0;points=[];autosize=1;strokeColor=none;fillColor=none;" parent="8gOSBzjKRAawWuFs5ZYo-27" vertex="1">
          <mxGeometry x="12.54" y="-4" width="70" height="30" as="geometry" />
        </mxCell>
        <mxCell id="8gOSBzjKRAawWuFs5ZYo-34" value="&lt;font style=&quot;font-size: 24px;&quot;&gt;$$\Sigma_M$$&lt;/font&gt;" style="rounded=0;whiteSpace=wrap;html=1;fillColor=#CCE5FF;strokeColor=none;strokeWidth=3;" parent="8gOSBzjKRAawWuFs5ZYo-27" vertex="1">
          <mxGeometry x="92.03571428571422" y="57.5" width="36.43" height="37" as="geometry" />
        </mxCell>
        <mxCell id="8gOSBzjKRAawWuFs5ZYo-35" value="" style="edgeStyle=orthogonalEdgeStyle;rounded=0;orthogonalLoop=1;jettySize=auto;html=1;endSize=2;dashed=1;jumpSize=6;" parent="8gOSBzjKRAawWuFs5ZYo-27" edge="1">
          <mxGeometry relative="1" as="geometry">
            <mxPoint x="72.75428571428577" y="76.00000000000023" as="sourcePoint" />
            <mxPoint x="92.03999999999999" y="76" as="targetPoint" />
          </mxGeometry>
        </mxCell>
        <mxCell id="8gOSBzjKRAawWuFs5ZYo-36" value="" style="group" parent="8gOSBzjKRAawWuFs5ZYo-26" vertex="1" connectable="0">
          <mxGeometry x="23.04" y="41" width="20.250000000000007" height="75" as="geometry" />
        </mxCell>
        <mxCell id="8gOSBzjKRAawWuFs5ZYo-37" value="" style="shape=cylinder;whiteSpace=wrap;html=1;boundedLbl=1;backgroundOutline=1;" parent="8gOSBzjKRAawWuFs5ZYo-36" vertex="1">
          <mxGeometry y="21.428571428571427" width="20" height="28.571428571428573" as="geometry" />
        </mxCell>
        <mxCell id="8gOSBzjKRAawWuFs5ZYo-38" value="&lt;font style=&quot;font-size: 16px;&quot;&gt;$$X_M$$&lt;/font&gt;" style="text;html=1;align=center;verticalAlign=middle;whiteSpace=wrap;rounded=0;" parent="8gOSBzjKRAawWuFs5ZYo-36" vertex="1">
          <mxGeometry x="-0.4999999999999929" y="50" width="20.5" height="30" as="geometry" />
        </mxCell>
        <mxCell id="8gOSBzjKRAawWuFs5ZYo-39" value="" style="edgeStyle=orthogonalEdgeStyle;rounded=0;orthogonalLoop=1;jettySize=auto;html=1;entryX=-0.051;entryY=0.538;entryDx=0;entryDy=0;entryPerimeter=0;" parent="8gOSBzjKRAawWuFs5ZYo-26" source="8gOSBzjKRAawWuFs5ZYo-37" target="8gOSBzjKRAawWuFs5ZYo-31" edge="1">
          <mxGeometry relative="1" as="geometry">
            <Array as="points" />
          </mxGeometry>
        </mxCell>
        <mxCell id="8gOSBzjKRAawWuFs5ZYo-40" value="" style="rounded=1;whiteSpace=wrap;html=1;strokeWidth=4;fillWeight=4;hachureGap=8;hachureAngle=45;fillColor=#1ba1e2;sketch=1;opacity=30;fillStyle=hachure;" parent="1" vertex="1">
          <mxGeometry x="734" y="-70" width="180" height="270" as="geometry" />
        </mxCell>
        <mxCell id="8gOSBzjKRAawWuFs5ZYo-41" value="ClusterServer" style="text;strokeColor=none;fillColor=none;html=1;fontSize=24;fontStyle=1;verticalAlign=middle;align=center;" parent="1" vertex="1">
          <mxGeometry x="738.9999999999999" y="-100" width="170" height="30" as="geometry" />
        </mxCell>
        <mxCell id="8gOSBzjKRAawWuFs5ZYo-42" value="&lt;h2&gt;&lt;font color=&quot;#ffffff&quot; size=&quot;1&quot;&gt;&lt;b style=&quot;font-size: 20px;&quot;&gt;CLUSTERING ALGORITHM&lt;/b&gt;&lt;/font&gt;&lt;/h2&gt;" style="rounded=1;whiteSpace=wrap;html=1;strokeWidth=5;fillWeight=4;hachureGap=8;hachureAngle=45;fillColor=#990000;sketch=1;opacity=80;fillStyle=solid;strokeColor=#990000;" parent="1" vertex="1">
          <mxGeometry x="744" y="-30" width="160" height="190" as="geometry" />
        </mxCell>
        <mxCell id="8gOSBzjKRAawWuFs5ZYo-43" value="" style="verticalAlign=bottom;endArrow=block;edgeStyle=elbowEdgeStyle;elbow=vertical;curved=0;rounded=0;fontSize=24;strokeWidth=2;exitX=0.862;exitY=-0.05;exitDx=0;exitDy=0;exitPerimeter=0;entryX=-0.026;entryY=0.463;entryDx=0;entryDy=0;entryPerimeter=0;" parent="1" source="8gOSBzjKRAawWuFs5ZYo-46" target="8gOSBzjKRAawWuFs5ZYo-197" edge="1">
          <mxGeometry x="-0.0041" relative="1" as="geometry">
            <Array as="points">
              <mxPoint x="370" y="55" />
            </Array>
            <mxPoint x="335" y="355.25" as="sourcePoint" />
            <mxPoint x="484" y="125.25" as="targetPoint" />
            <mxPoint as="offset" />
          </mxGeometry>
        </mxCell>
        <mxCell id="8gOSBzjKRAawWuFs5ZYo-44" value="&lt;span style=&quot;font-size: 26px;&quot;&gt;$$\{\theta_c\}_{c=1}^M$$&lt;/span&gt;" style="edgeLabel;html=1;align=center;verticalAlign=middle;resizable=0;points=[];labelBackgroundColor=none;" parent="8gOSBzjKRAawWuFs5ZYo-43" vertex="1" connectable="0">
          <mxGeometry x="0.1203" relative="1" as="geometry">
            <mxPoint x="-9" y="133" as="offset" />
          </mxGeometry>
        </mxCell>
        <mxCell id="8gOSBzjKRAawWuFs5ZYo-45" value="ClusterServer" style="text;strokeColor=none;fillColor=none;html=1;fontSize=24;fontStyle=1;verticalAlign=middle;align=center;" parent="1" vertex="1">
          <mxGeometry x="80.5" y="-100" width="170" height="30" as="geometry" />
        </mxCell>
        <mxCell id="8gOSBzjKRAawWuFs5ZYo-46" value="All Clients" style="text;strokeColor=none;fillColor=none;html=1;fontSize=24;fontStyle=1;verticalAlign=middle;align=center;" parent="1" vertex="1">
          <mxGeometry x="128.20999999999998" y="369" width="240" height="40" as="geometry" />
        </mxCell>
        <mxCell id="8gOSBzjKRAawWuFs5ZYo-47" value="&lt;font style=&quot;font-size: 22px;&quot;&gt;&lt;b&gt;a. Server Initialization and Clustering&lt;/b&gt;&lt;/font&gt;" style="text;html=1;align=center;verticalAlign=middle;whiteSpace=wrap;rounded=0;" parent="1" vertex="1">
          <mxGeometry x="261.15999999999997" y="700" width="399.02" height="30" as="geometry" />
        </mxCell>
        <mxCell id="8gOSBzjKRAawWuFs5ZYo-48" style="edgeStyle=orthogonalEdgeStyle;rounded=0;orthogonalLoop=1;jettySize=auto;html=1;exitX=1;exitY=0.25;exitDx=0;exitDy=0;entryX=-0.004;entryY=0.56;entryDx=0;entryDy=0;entryPerimeter=0;strokeWidth=8;strokeColor=#004C99;" parent="1" edge="1">
          <mxGeometry relative="1" as="geometry">
            <mxPoint x="917.5200000000004" y="61.019999999999996" as="sourcePoint" />
            <mxPoint x="1047.8300000000002" y="60.61999999999993" as="targetPoint" />
          </mxGeometry>
        </mxCell>
        <mxCell id="8gOSBzjKRAawWuFs5ZYo-49" value="4" style="text;strokeColor=none;fillColor=none;html=1;fontSize=24;fontStyle=1;verticalAlign=middle;align=center;" parent="1" vertex="1">
          <mxGeometry x="732" y="-70" width="32.45" height="40" as="geometry" />
        </mxCell>
        <mxCell id="8gOSBzjKRAawWuFs5ZYo-50" value="" style="rounded=1;whiteSpace=wrap;html=1;strokeWidth=2;perimeterSpacing=2;glass=0;fillColor=none;" parent="1" vertex="1">
          <mxGeometry x="1069.25" y="-30" width="263.75" height="640" as="geometry" />
        </mxCell>
        <mxCell id="8gOSBzjKRAawWuFs5ZYo-51" value="" style="rounded=1;whiteSpace=wrap;html=1;strokeWidth=2;fillWeight=4;hachureGap=8;hachureAngle=45;fillColor=#1ba1e2;sketch=1;opacity=30;fillStyle=hachure;" parent="1" vertex="1">
          <mxGeometry x="1050.5" y="-70" width="712.5" height="271" as="geometry" />
        </mxCell>
        <mxCell id="8gOSBzjKRAawWuFs5ZYo-52" value="ClusterServer" style="text;strokeColor=none;fillColor=none;html=1;fontSize=24;fontStyle=1;verticalAlign=middle;align=center;" parent="1" vertex="1">
          <mxGeometry x="1297.6699999999998" y="-105" width="170" height="40" as="geometry" />
        </mxCell>
        <mxCell id="8gOSBzjKRAawWuFs5ZYo-53" value="&lt;b&gt;&lt;font style=&quot;font-size: 30px;&quot;&gt;...&lt;/font&gt;&lt;/b&gt;" style="text;html=1;align=center;verticalAlign=middle;whiteSpace=wrap;rounded=0;" parent="1" vertex="1">
          <mxGeometry x="1403" y="101" width="30" height="30" as="geometry" />
        </mxCell>
        <mxCell id="8gOSBzjKRAawWuFs5ZYo-54" value="" style="rounded=1;whiteSpace=wrap;html=1;strokeWidth=2;fillWeight=4;hachureGap=8;hachureAngle=45;fillColor=#9cd9ce;sketch=1;opacity=60;" parent="1" vertex="1">
          <mxGeometry x="1085.59" y="413.19" width="231.06594071385365" height="180" as="geometry" />
        </mxCell>
        <mxCell id="8gOSBzjKRAawWuFs5ZYo-55" value="&lt;b&gt;&lt;font style=&quot;font-size: 30px;&quot;&gt;...&lt;/font&gt;&lt;/b&gt;" style="text;html=1;align=center;verticalAlign=middle;whiteSpace=wrap;rounded=0;" parent="1" vertex="1">
          <mxGeometry x="1234.31" y="521.69" width="34.28571428571428" height="30" as="geometry" />
        </mxCell>
        <mxCell id="8gOSBzjKRAawWuFs5ZYo-56" value="" style="shape=curlyBracket;whiteSpace=wrap;html=1;rounded=1;flipH=1;labelPosition=right;verticalLabelPosition=middle;align=left;verticalAlign=middle;rotation=90;size=0.5;strokeWidth=2;" parent="1" vertex="1">
          <mxGeometry x="1387.03" y="292.81" width="45.98" height="686.88" as="geometry" />
        </mxCell>
        <mxCell id="8gOSBzjKRAawWuFs5ZYo-57" value="&lt;div&gt;&lt;font size=&quot;1&quot;&gt;&lt;i style=&quot;font-size: 18px;&quot;&gt;&lt;b&gt;N&lt;/b&gt;&amp;nbsp;&lt;/i&gt;&lt;/font&gt;&lt;font size=&quot;1&quot;&gt;&lt;i style=&quot;font-size: 18px;&quot;&gt;(N&lt;/i&gt;&lt;/font&gt;&lt;i style=&quot;font-size: 18px;&quot;&gt;umber of Clusters)&lt;/i&gt;&lt;/div&gt;" style="text;html=1;align=center;verticalAlign=middle;resizable=0;points=[];autosize=1;strokeColor=none;fillColor=none;" parent="1" vertex="1">
          <mxGeometry x="1298.6133333333332" y="651.25" width="210" height="30" as="geometry" />
        </mxCell>
        <mxCell id="8gOSBzjKRAawWuFs5ZYo-58" value="&lt;font style=&quot;font-size: 22px;&quot;&gt;&lt;b&gt;b. Iterative Learning Scheme&lt;/b&gt;&lt;/font&gt;" style="text;html=1;align=center;verticalAlign=middle;whiteSpace=wrap;rounded=0;" parent="1" vertex="1">
          <mxGeometry x="1222.5199999999998" y="700" width="375" height="30" as="geometry" />
        </mxCell>
        <mxCell id="8gOSBzjKRAawWuFs5ZYo-59" value="Cluster 1" style="text;strokeColor=none;fillColor=none;html=1;fontSize=24;fontStyle=1;verticalAlign=middle;align=center;" parent="1" vertex="1">
          <mxGeometry x="1123.9767300131061" y="373.19" width="154.28571428571428" height="40" as="geometry" />
        </mxCell>
        <mxCell id="8gOSBzjKRAawWuFs5ZYo-60" value="" style="group" parent="1" vertex="1" connectable="0">
          <mxGeometry x="1091.6200000000001" y="-30.000000000000053" width="219" height="208.87555555555556" as="geometry" />
        </mxCell>
        <mxCell id="8gOSBzjKRAawWuFs5ZYo-61" value="" style="group" parent="8gOSBzjKRAawWuFs5ZYo-60" vertex="1" connectable="0">
          <mxGeometry x="77.75147928994083" width="141.24852071005918" height="208.87555555555556" as="geometry" />
        </mxCell>
        <mxCell id="8gOSBzjKRAawWuFs5ZYo-62" value="" style="group" parent="8gOSBzjKRAawWuFs5ZYo-61" vertex="1" connectable="0">
          <mxGeometry x="-77.75147928994083" y="38.87555555555556" width="219" height="170" as="geometry" />
        </mxCell>
        <mxCell id="8gOSBzjKRAawWuFs5ZYo-63" value="&lt;font style=&quot;font-size: 20px;&quot;&gt;&lt;b&gt;Server&lt;/b&gt;&lt;/font&gt;" style="rounded=1;whiteSpace=wrap;html=1;absoluteArcSize=1;arcSize=14;strokeWidth=2;labelPosition=center;verticalLabelPosition=top;align=center;verticalAlign=bottom;" parent="8gOSBzjKRAawWuFs5ZYo-62" vertex="1">
          <mxGeometry width="219" height="170" as="geometry" />
        </mxCell>
        <mxCell id="8gOSBzjKRAawWuFs5ZYo-64" value="" style="group" parent="8gOSBzjKRAawWuFs5ZYo-62" vertex="1" connectable="0">
          <mxGeometry x="87.19273034657643" y="19.437777777777775" width="129.58579881656806" height="90.7096296296296" as="geometry" />
        </mxCell>
        <mxCell id="8gOSBzjKRAawWuFs5ZYo-65" value="" style="verticalLabelPosition=middle;verticalAlign=middle;html=1;shape=trapezoid;perimeter=trapezoidPerimeter;whiteSpace=wrap;size=0.23;arcSize=10;flipV=1;labelPosition=center;align=center;rotation=-90;fillColor=#b0e3e6;strokeColor=#0e8088;" parent="8gOSBzjKRAawWuFs5ZYo-64" vertex="1">
          <mxGeometry x="-18.512256973795434" y="18.14192592592592" width="92.56128486897718" height="54.42577777777777" as="geometry" />
        </mxCell>
        <mxCell id="8gOSBzjKRAawWuFs5ZYo-66" value="" style="triangle;whiteSpace=wrap;html=1;fillColor=#e1d5e7;strokeColor=#9673a6;" parent="8gOSBzjKRAawWuFs5ZYo-64" vertex="1">
          <mxGeometry x="64.79289940828403" y="22.6774074074074" width="64.79289940828403" height="45.3548148148148" as="geometry" />
        </mxCell>
        <mxCell id="8gOSBzjKRAawWuFs5ZYo-67" value="&lt;span style=&quot;font-size: 26px; white-space: nowrap;&quot;&gt;$$\Theta_1^{i+1}$$&lt;/span&gt;" style="text;html=1;align=center;verticalAlign=middle;whiteSpace=wrap;rounded=0;" parent="8gOSBzjKRAawWuFs5ZYo-64" vertex="1">
          <mxGeometry x="0.9256128486897718" y="31.748370370370367" width="55.53677092138631" height="27.212888888888884" as="geometry" />
        </mxCell>
        <mxCell id="8gOSBzjKRAawWuFs5ZYo-68" value="&lt;span style=&quot;font-size: x-large;&quot;&gt;$$\omega_1^{i+1}$$&lt;/span&gt;" style="text;html=1;align=center;verticalAlign=middle;whiteSpace=wrap;rounded=0;" parent="8gOSBzjKRAawWuFs5ZYo-64" vertex="1">
          <mxGeometry x="56.46238377007607" y="31.748370370370367" width="55.53677092138631" height="27.212888888888884" as="geometry" />
        </mxCell>
        <mxCell id="8gOSBzjKRAawWuFs5ZYo-69" value="&lt;span style=&quot;font-family: &amp;quot;Playwrite Netherland&amp;quot;; font-size: 16px;&quot;&gt;$$\mathcal{L_X}$$&lt;/span&gt;" style="text;html=1;align=center;verticalAlign=middle;whiteSpace=wrap;rounded=0;" parent="8gOSBzjKRAawWuFs5ZYo-62" vertex="1">
          <mxGeometry x="53.45414201183432" y="64.79259259259258" width="24.297337278106507" height="25.91703703703703" as="geometry" />
        </mxCell>
        <mxCell id="8gOSBzjKRAawWuFs5ZYo-70" value="" style="group" parent="8gOSBzjKRAawWuFs5ZYo-62" vertex="1" connectable="0">
          <mxGeometry x="11.662721893491126" y="32.39629629629629" width="46.6508875739645" height="64.79259259259258" as="geometry" />
        </mxCell>
        <mxCell id="8gOSBzjKRAawWuFs5ZYo-71" value="" style="shape=cylinder;whiteSpace=wrap;html=1;boundedLbl=1;backgroundOutline=1;" parent="8gOSBzjKRAawWuFs5ZYo-70" vertex="1">
          <mxGeometry y="27.768253968253962" width="25.91715976331361" height="37.02433862433862" as="geometry" />
        </mxCell>
        <mxCell id="8gOSBzjKRAawWuFs5ZYo-72" value="" style="shape=cylinder;whiteSpace=wrap;html=1;boundedLbl=1;backgroundOutline=1;" parent="8gOSBzjKRAawWuFs5ZYo-70" vertex="1">
          <mxGeometry width="25.91715976331361" height="37.02433862433862" as="geometry" />
        </mxCell>
        <mxCell id="8gOSBzjKRAawWuFs5ZYo-73" value="" style="edgeStyle=orthogonalEdgeStyle;rounded=0;orthogonalLoop=1;jettySize=auto;html=1;entryX=-0.051;entryY=0.538;entryDx=0;entryDy=0;entryPerimeter=0;" parent="8gOSBzjKRAawWuFs5ZYo-62" edge="1">
          <mxGeometry relative="1" as="geometry">
            <mxPoint x="38.875739644970416" y="64.79259259259258" as="sourcePoint" />
            <mxPoint x="82.93491124260355" y="64.79259259259258" as="targetPoint" />
            <Array as="points" />
          </mxGeometry>
        </mxCell>
        <mxCell id="8gOSBzjKRAawWuFs5ZYo-74" value="" style="group" parent="8gOSBzjKRAawWuFs5ZYo-62" vertex="1" connectable="0">
          <mxGeometry x="128.37999999999988" y="90.71444444444438" width="36.43" height="61.379999999999995" as="geometry" />
        </mxCell>
        <mxCell id="8gOSBzjKRAawWuFs5ZYo-75" value="&lt;font style=&quot;font-size: 20px;&quot;&gt;$$\Sigma_1^{i+1}$$&lt;/font&gt;" style="rounded=0;whiteSpace=wrap;html=1;fillColor=#CCE5FF;strokeColor=none;strokeWidth=3;align=left;" parent="8gOSBzjKRAawWuFs5ZYo-74" vertex="1">
          <mxGeometry y="24.379999999999995" width="36.43" height="37" as="geometry" />
        </mxCell>
        <mxCell id="8gOSBzjKRAawWuFs5ZYo-76" value="" style="edgeStyle=orthogonalEdgeStyle;rounded=0;orthogonalLoop=1;jettySize=auto;html=1;endSize=2;dashed=1;jumpSize=6;entryX=0.48;entryY=-0.064;entryDx=0;entryDy=0;entryPerimeter=0;" parent="8gOSBzjKRAawWuFs5ZYo-74" target="8gOSBzjKRAawWuFs5ZYo-75" edge="1">
          <mxGeometry relative="1" as="geometry">
            <mxPoint x="17.50428571428577" as="sourcePoint" />
            <mxPoint x="19.284285714285772" y="0.5199999999999818" as="targetPoint" />
          </mxGeometry>
        </mxCell>
        <mxCell id="8gOSBzjKRAawWuFs5ZYo-77" value="&lt;span style=&quot;font-size: 16px; white-space: normal;&quot;&gt;$$X_s$$&lt;/span&gt;" style="text;html=1;align=center;verticalAlign=middle;resizable=0;points=[];autosize=1;strokeColor=none;fillColor=none;" parent="8gOSBzjKRAawWuFs5ZYo-62" vertex="1">
          <mxGeometry x="-19.62000000000012" y="94.18444444444452" width="90" height="30" as="geometry" />
        </mxCell>
        <mxCell id="8gOSBzjKRAawWuFs5ZYo-78" value="&lt;span style=&quot;font-size: 16px; white-space: normal;&quot;&gt;$$Y_s$$&lt;/span&gt;" style="text;html=1;align=center;verticalAlign=middle;resizable=0;points=[];autosize=1;strokeColor=none;fillColor=none;" parent="8gOSBzjKRAawWuFs5ZYo-62" vertex="1">
          <mxGeometry x="-17.62000000000012" y="10.124444444444496" width="90" height="30" as="geometry" />
        </mxCell>
        <mxCell id="8gOSBzjKRAawWuFs5ZYo-79" value="5" style="text;strokeColor=none;fillColor=none;html=1;fontSize=24;fontStyle=1;verticalAlign=middle;align=center;" parent="1" vertex="1">
          <mxGeometry x="1056.35" y="-66.38" width="34.25" height="40" as="geometry" />
        </mxCell>
        <mxCell id="8gOSBzjKRAawWuFs5ZYo-80" value="" style="endArrow=classic;html=1;rounded=0;strokeWidth=2;entryX=0.169;entryY=1.004;entryDx=0;entryDy=0;entryPerimeter=0;exitX=0.024;exitY=1.008;exitDx=0;exitDy=0;exitPerimeter=0;" parent="1" source="8gOSBzjKRAawWuFs5ZYo-59" target="8gOSBzjKRAawWuFs5ZYo-63" edge="1">
          <mxGeometry width="50" height="50" relative="1" as="geometry">
            <mxPoint x="1127.6399999999999" y="409.69" as="sourcePoint" />
            <mxPoint x="1127.775" y="200.69" as="targetPoint" />
          </mxGeometry>
        </mxCell>
        <mxCell id="8gOSBzjKRAawWuFs5ZYo-81" value="&lt;span style=&quot;font-size: 26px;&quot;&gt;$$\{\theta_c^i\}_{c=1}^{M_1}$$&lt;/span&gt;" style="edgeLabel;html=1;align=center;verticalAlign=middle;resizable=0;points=[];labelBackgroundColor=none;" parent="8gOSBzjKRAawWuFs5ZYo-80" vertex="1" connectable="0">
          <mxGeometry x="-0.3021" relative="1" as="geometry">
            <mxPoint x="-8" y="-3" as="offset" />
          </mxGeometry>
        </mxCell>
        <mxCell id="8gOSBzjKRAawWuFs5ZYo-82" value="" style="verticalLabelPosition=bottom;shadow=0;dashed=0;align=center;html=1;verticalAlign=top;shape=mxgraph.electrical.abstract.sum;strokeWidth=2;" parent="1" vertex="1">
          <mxGeometry x="1105.9099999999999" y="224.98999999999995" width="43" height="43" as="geometry" />
        </mxCell>
        <mxCell id="8gOSBzjKRAawWuFs5ZYo-83" value="" style="endArrow=classic;html=1;rounded=0;strokeWidth=2;entryX=0.101;entryY=0.98;entryDx=0;entryDy=0;entryPerimeter=0;exitX=0.81;exitY=1.01;exitDx=0;exitDy=0;exitPerimeter=0;" parent="1" source="8gOSBzjKRAawWuFs5ZYo-63" edge="1">
          <mxGeometry width="50" height="50" relative="1" as="geometry">
            <mxPoint x="1268.64" y="199.69" as="sourcePoint" />
            <mxPoint x="1268.68" y="413.19000000000005" as="targetPoint" />
          </mxGeometry>
        </mxCell>
        <mxCell id="8gOSBzjKRAawWuFs5ZYo-84" value="&lt;span style=&quot;font-size: 26px;&quot;&gt;$$\Theta_1^{i+1} \; \Sigma_1^{i+1}$$&lt;/span&gt;" style="edgeLabel;html=1;align=center;verticalAlign=middle;resizable=0;points=[];labelBackgroundColor=none;" parent="8gOSBzjKRAawWuFs5ZYo-83" vertex="1" connectable="0">
          <mxGeometry x="0.0221" relative="1" as="geometry">
            <mxPoint y="-29" as="offset" />
          </mxGeometry>
        </mxCell>
        <mxCell id="8gOSBzjKRAawWuFs5ZYo-85" value="" style="rounded=1;whiteSpace=wrap;html=1;strokeWidth=2;perimeterSpacing=2;glass=0;fillColor=none;" parent="1" vertex="1">
          <mxGeometry x="1489.25" y="-30" width="263.75" height="638.31" as="geometry" />
        </mxCell>
        <mxCell id="8gOSBzjKRAawWuFs5ZYo-86" value="" style="rounded=1;whiteSpace=wrap;html=1;strokeWidth=2;fillWeight=4;hachureGap=8;hachureAngle=45;fillColor=#9cd9ce;sketch=1;opacity=60;" parent="1" vertex="1">
          <mxGeometry x="1505.59" y="411.5" width="231.06594071385365" height="180" as="geometry" />
        </mxCell>
        <mxCell id="8gOSBzjKRAawWuFs5ZYo-87" value="&lt;b&gt;&lt;font style=&quot;font-size: 30px;&quot;&gt;...&lt;/font&gt;&lt;/b&gt;" style="text;html=1;align=center;verticalAlign=middle;whiteSpace=wrap;rounded=0;" parent="1" vertex="1">
          <mxGeometry x="1654.31" y="520" width="34.28571428571428" height="30" as="geometry" />
        </mxCell>
        <mxCell id="8gOSBzjKRAawWuFs5ZYo-88" value="Cluster N" style="text;strokeColor=none;fillColor=none;html=1;fontSize=24;fontStyle=1;verticalAlign=middle;align=center;" parent="1" vertex="1">
          <mxGeometry x="1543.9767300131061" y="371.5" width="154.28571428571428" height="40" as="geometry" />
        </mxCell>
        <mxCell id="8gOSBzjKRAawWuFs5ZYo-89" value="" style="group" parent="1" vertex="1" connectable="0">
          <mxGeometry x="1510.6000000000001" y="24.059999999999945" width="219" height="174.94" as="geometry" />
        </mxCell>
        <mxCell id="8gOSBzjKRAawWuFs5ZYo-90" value="" style="group" parent="8gOSBzjKRAawWuFs5ZYo-89" vertex="1" connectable="0">
          <mxGeometry x="77.75147928994083" width="141.24852071005918" height="168.46074074074073" as="geometry" />
        </mxCell>
        <mxCell id="8gOSBzjKRAawWuFs5ZYo-91" value="" style="group" parent="8gOSBzjKRAawWuFs5ZYo-90" vertex="1" connectable="0">
          <mxGeometry x="-77.75147928994083" y="-14.06444444444444" width="219" height="170" as="geometry" />
        </mxCell>
        <mxCell id="8gOSBzjKRAawWuFs5ZYo-92" value="&lt;font style=&quot;font-size: 20px;&quot;&gt;&lt;b&gt;Server&lt;/b&gt;&lt;/font&gt;" style="rounded=1;whiteSpace=wrap;html=1;absoluteArcSize=1;arcSize=14;strokeWidth=2;labelPosition=center;verticalLabelPosition=top;align=center;verticalAlign=bottom;" parent="8gOSBzjKRAawWuFs5ZYo-91" vertex="1">
          <mxGeometry y="-1" width="219" height="170" as="geometry" />
        </mxCell>
        <mxCell id="8gOSBzjKRAawWuFs5ZYo-93" value="" style="group" parent="8gOSBzjKRAawWuFs5ZYo-91" vertex="1" connectable="0">
          <mxGeometry x="87.19273034657643" y="19.437777777777775" width="129.58579881656806" height="90.7096296296296" as="geometry" />
        </mxCell>
        <mxCell id="8gOSBzjKRAawWuFs5ZYo-94" value="" style="verticalLabelPosition=middle;verticalAlign=middle;html=1;shape=trapezoid;perimeter=trapezoidPerimeter;whiteSpace=wrap;size=0.23;arcSize=10;flipV=1;labelPosition=center;align=center;rotation=-90;fillColor=#b0e3e6;strokeColor=#0e8088;" parent="8gOSBzjKRAawWuFs5ZYo-93" vertex="1">
          <mxGeometry x="-18.512256973795434" y="18.14192592592592" width="92.56128486897718" height="54.42577777777777" as="geometry" />
        </mxCell>
        <mxCell id="8gOSBzjKRAawWuFs5ZYo-95" value="" style="triangle;whiteSpace=wrap;html=1;fillColor=#e1d5e7;strokeColor=#9673a6;" parent="8gOSBzjKRAawWuFs5ZYo-93" vertex="1">
          <mxGeometry x="64.79289940828403" y="22.6774074074074" width="64.79289940828403" height="45.3548148148148" as="geometry" />
        </mxCell>
        <mxCell id="8gOSBzjKRAawWuFs5ZYo-96" value="&lt;span style=&quot;font-size: 26px; white-space: nowrap;&quot;&gt;$$\Theta_N^{i+1}$$&lt;/span&gt;" style="text;html=1;align=center;verticalAlign=middle;whiteSpace=wrap;rounded=0;" parent="8gOSBzjKRAawWuFs5ZYo-93" vertex="1">
          <mxGeometry x="0.9256128486897718" y="31.748370370370367" width="55.53677092138631" height="27.212888888888884" as="geometry" />
        </mxCell>
        <mxCell id="8gOSBzjKRAawWuFs5ZYo-97" value="&lt;span style=&quot;font-size: x-large;&quot;&gt;$$\omega_N^{i+1}$$&lt;/span&gt;" style="text;html=1;align=center;verticalAlign=middle;whiteSpace=wrap;rounded=0;" parent="8gOSBzjKRAawWuFs5ZYo-93" vertex="1">
          <mxGeometry x="56.46238377007607" y="31.748370370370367" width="55.53677092138631" height="27.212888888888884" as="geometry" />
        </mxCell>
        <mxCell id="8gOSBzjKRAawWuFs5ZYo-98" value="&lt;span style=&quot;font-family: &amp;quot;Playwrite Netherland&amp;quot;; font-size: 16px;&quot;&gt;$$\mathcal{L_X}$$&lt;/span&gt;" style="text;html=1;align=center;verticalAlign=middle;whiteSpace=wrap;rounded=0;" parent="8gOSBzjKRAawWuFs5ZYo-91" vertex="1">
          <mxGeometry x="53.45414201183432" y="64.79259259259258" width="24.297337278106507" height="25.91703703703703" as="geometry" />
        </mxCell>
        <mxCell id="8gOSBzjKRAawWuFs5ZYo-99" value="" style="group" parent="8gOSBzjKRAawWuFs5ZYo-91" vertex="1" connectable="0">
          <mxGeometry x="11.662721893491126" y="32.39629629629629" width="46.6508875739645" height="64.79259259259258" as="geometry" />
        </mxCell>
        <mxCell id="8gOSBzjKRAawWuFs5ZYo-100" value="" style="shape=cylinder;whiteSpace=wrap;html=1;boundedLbl=1;backgroundOutline=1;" parent="8gOSBzjKRAawWuFs5ZYo-99" vertex="1">
          <mxGeometry y="27.768253968253962" width="25.91715976331361" height="37.02433862433862" as="geometry" />
        </mxCell>
        <mxCell id="8gOSBzjKRAawWuFs5ZYo-101" value="" style="shape=cylinder;whiteSpace=wrap;html=1;boundedLbl=1;backgroundOutline=1;" parent="8gOSBzjKRAawWuFs5ZYo-99" vertex="1">
          <mxGeometry width="25.91715976331361" height="37.02433862433862" as="geometry" />
        </mxCell>
        <mxCell id="8gOSBzjKRAawWuFs5ZYo-102" value="" style="edgeStyle=orthogonalEdgeStyle;rounded=0;orthogonalLoop=1;jettySize=auto;html=1;entryX=-0.051;entryY=0.538;entryDx=0;entryDy=0;entryPerimeter=0;" parent="8gOSBzjKRAawWuFs5ZYo-91" edge="1">
          <mxGeometry relative="1" as="geometry">
            <mxPoint x="38.875739644970416" y="64.79259259259258" as="sourcePoint" />
            <mxPoint x="82.93491124260355" y="64.79259259259258" as="targetPoint" />
            <Array as="points" />
          </mxGeometry>
        </mxCell>
        <mxCell id="8gOSBzjKRAawWuFs5ZYo-103" value="" style="group" parent="8gOSBzjKRAawWuFs5ZYo-91" vertex="1" connectable="0">
          <mxGeometry x="129.39999999999986" y="90.71444444444438" width="36.43" height="61.379999999999995" as="geometry" />
        </mxCell>
        <mxCell id="8gOSBzjKRAawWuFs5ZYo-104" value="&lt;font style=&quot;font-size: 20px;&quot;&gt;$$\Sigma_N^{i+1}$$&lt;/font&gt;" style="rounded=0;whiteSpace=wrap;html=1;fillColor=#CCE5FF;strokeColor=none;strokeWidth=3;align=left;" parent="8gOSBzjKRAawWuFs5ZYo-103" vertex="1">
          <mxGeometry y="24.379999999999995" width="36.43" height="37" as="geometry" />
        </mxCell>
        <mxCell id="8gOSBzjKRAawWuFs5ZYo-105" value="" style="edgeStyle=orthogonalEdgeStyle;rounded=0;orthogonalLoop=1;jettySize=auto;html=1;endSize=2;dashed=1;jumpSize=6;entryX=0.48;entryY=-0.064;entryDx=0;entryDy=0;entryPerimeter=0;" parent="8gOSBzjKRAawWuFs5ZYo-103" target="8gOSBzjKRAawWuFs5ZYo-104" edge="1">
          <mxGeometry relative="1" as="geometry">
            <mxPoint x="17.50428571428577" as="sourcePoint" />
            <mxPoint x="19.284285714285772" y="0.5199999999999818" as="targetPoint" />
          </mxGeometry>
        </mxCell>
        <mxCell id="8gOSBzjKRAawWuFs5ZYo-106" value="&lt;span style=&quot;font-size: 16px; white-space: normal;&quot;&gt;$$X_s$$&lt;/span&gt;" style="text;html=1;align=center;verticalAlign=middle;resizable=0;points=[];autosize=1;strokeColor=none;fillColor=none;" parent="8gOSBzjKRAawWuFs5ZYo-91" vertex="1">
          <mxGeometry x="-19.600000000000136" y="94.18444444444452" width="90" height="30" as="geometry" />
        </mxCell>
        <mxCell id="8gOSBzjKRAawWuFs5ZYo-107" value="&lt;span style=&quot;font-size: 16px; white-space: normal;&quot;&gt;$$Y_s$$&lt;/span&gt;" style="text;html=1;align=center;verticalAlign=middle;resizable=0;points=[];autosize=1;strokeColor=none;fillColor=none;" parent="8gOSBzjKRAawWuFs5ZYo-91" vertex="1">
          <mxGeometry x="-19.600000000000136" y="10.004444444444495" width="90" height="30" as="geometry" />
        </mxCell>
        <mxCell id="8gOSBzjKRAawWuFs5ZYo-108" value="" style="endArrow=classic;html=1;rounded=0;strokeWidth=2;entryX=0.169;entryY=1.004;entryDx=0;entryDy=0;entryPerimeter=0;exitX=0.024;exitY=1.008;exitDx=0;exitDy=0;exitPerimeter=0;" parent="1" source="8gOSBzjKRAawWuFs5ZYo-88" target="8gOSBzjKRAawWuFs5ZYo-92" edge="1">
          <mxGeometry width="50" height="50" relative="1" as="geometry">
            <mxPoint x="1547.6399999999999" y="408" as="sourcePoint" />
            <mxPoint x="1547.775" y="199" as="targetPoint" />
          </mxGeometry>
        </mxCell>
        <mxCell id="8gOSBzjKRAawWuFs5ZYo-109" value="&lt;span style=&quot;font-size: 26px;&quot;&gt;$$\{\theta_c^i\}_{c=1}^{M_N}$$&lt;/span&gt;" style="edgeLabel;html=1;align=center;verticalAlign=middle;resizable=0;points=[];labelBackgroundColor=none;" parent="8gOSBzjKRAawWuFs5ZYo-108" vertex="1" connectable="0">
          <mxGeometry x="-0.3021" relative="1" as="geometry">
            <mxPoint x="-8" y="-3" as="offset" />
          </mxGeometry>
        </mxCell>
        <mxCell id="8gOSBzjKRAawWuFs5ZYo-110" value="" style="verticalLabelPosition=bottom;shadow=0;dashed=0;align=center;html=1;verticalAlign=top;shape=mxgraph.electrical.abstract.sum;strokeWidth=2;" parent="1" vertex="1">
          <mxGeometry x="1525.9099999999999" y="223.29999999999995" width="43" height="43" as="geometry" />
        </mxCell>
        <mxCell id="8gOSBzjKRAawWuFs5ZYo-111" value="" style="endArrow=classic;html=1;rounded=0;strokeWidth=2;entryX=0.101;entryY=0.98;entryDx=0;entryDy=0;entryPerimeter=0;exitX=0.81;exitY=1.01;exitDx=0;exitDy=0;exitPerimeter=0;" parent="1" source="8gOSBzjKRAawWuFs5ZYo-92" edge="1">
          <mxGeometry width="50" height="50" relative="1" as="geometry">
            <mxPoint x="1688.64" y="198" as="sourcePoint" />
            <mxPoint x="1688.68" y="411.50000000000006" as="targetPoint" />
          </mxGeometry>
        </mxCell>
        <mxCell id="8gOSBzjKRAawWuFs5ZYo-112" value="&lt;span style=&quot;font-size: 26px;&quot;&gt;$$\Theta_N^{i+1} \; \Sigma_N^{i+1}$$&lt;/span&gt;" style="edgeLabel;html=1;align=center;verticalAlign=middle;resizable=0;points=[];labelBackgroundColor=none;" parent="8gOSBzjKRAawWuFs5ZYo-111" vertex="1" connectable="0">
          <mxGeometry x="0.0221" relative="1" as="geometry">
            <mxPoint y="-29" as="offset" />
          </mxGeometry>
        </mxCell>
        <mxCell id="8gOSBzjKRAawWuFs5ZYo-113" value="" style="group" parent="1" vertex="1" connectable="0">
          <mxGeometry x="1332.9999999999998" y="230.00000000000023" width="150" height="121.38000000000011" as="geometry" />
        </mxCell>
        <mxCell id="8gOSBzjKRAawWuFs5ZYo-114" value="&lt;font style=&quot;font-size: 17px;&quot;&gt;&lt;b&gt;communication&lt;/b&gt;&lt;/font&gt;&lt;div style=&quot;font-size: 17px;&quot;&gt;&lt;font style=&quot;font-size: 17px;&quot;&gt;&lt;b&gt;rounds&lt;/b&gt;&lt;/font&gt;&lt;/div&gt;&lt;div style=&quot;font-size: 18px;&quot;&gt;&lt;font style=&quot;font-size: 18px;&quot;&gt;&lt;b&gt;i = 1, ..., T&lt;/b&gt;&lt;/font&gt;&lt;/div&gt;" style="text;html=1;align=center;verticalAlign=middle;resizable=0;points=[];autosize=1;strokeColor=none;fillColor=none;" parent="8gOSBzjKRAawWuFs5ZYo-113" vertex="1">
          <mxGeometry y="51.38000000000011" width="150" height="70" as="geometry" />
        </mxCell>
        <mxCell id="8gOSBzjKRAawWuFs5ZYo-115" value="" style="shape=image;html=1;verticalAlign=top;verticalLabelPosition=bottom;labelBackgroundColor=#ffffff;imageAspect=0;aspect=fixed;image=https://cdn0.iconfinder.com/data/icons/google-material-design-3-0/48/ic_loop_48px-128.png" parent="8gOSBzjKRAawWuFs5ZYo-113" vertex="1">
          <mxGeometry x="43.92000000000053" width="58" height="58" as="geometry" />
        </mxCell>
        <mxCell id="8gOSBzjKRAawWuFs5ZYo-116" value="" style="group" parent="1" vertex="1" connectable="0">
          <mxGeometry x="260" y="410" width="166.92571428571424" height="130" as="geometry" />
        </mxCell>
        <mxCell id="8gOSBzjKRAawWuFs5ZYo-117" value="" style="group" parent="8gOSBzjKRAawWuFs5ZYo-116" vertex="1" connectable="0">
          <mxGeometry x="47.96000000000001" width="118.96571428571423" height="130" as="geometry" />
        </mxCell>
        <mxCell id="8gOSBzjKRAawWuFs5ZYo-118" value="" style="rounded=1;whiteSpace=wrap;html=1;absoluteArcSize=1;arcSize=14;strokeWidth=2;labelPosition=center;verticalLabelPosition=top;align=center;verticalAlign=bottom;" parent="8gOSBzjKRAawWuFs5ZYo-117" vertex="1">
          <mxGeometry x="-36.96" y="26" width="169" height="100" as="geometry" />
        </mxCell>
        <mxCell id="8gOSBzjKRAawWuFs5ZYo-119" value="" style="group" parent="8gOSBzjKRAawWuFs5ZYo-117" vertex="1" connectable="0">
          <mxGeometry x="30.32571428571422" y="41" width="100" height="70" as="geometry" />
        </mxCell>
        <mxCell id="8gOSBzjKRAawWuFs5ZYo-120" value="" style="verticalLabelPosition=middle;verticalAlign=middle;html=1;shape=trapezoid;perimeter=trapezoidPerimeter;whiteSpace=wrap;size=0.23;arcSize=10;flipV=1;labelPosition=center;align=center;rotation=-90;fillColor=#b0e3e6;strokeColor=#0e8088;" parent="8gOSBzjKRAawWuFs5ZYo-119" vertex="1">
          <mxGeometry x="-14.285714285714285" y="14" width="71.42857142857143" height="42" as="geometry" />
        </mxCell>
        <mxCell id="8gOSBzjKRAawWuFs5ZYo-121" value="&lt;font style=&quot;font-size: 24px;&quot;&gt;$$\theta_2$$&lt;/font&gt;" style="text;html=1;align=center;verticalAlign=middle;whiteSpace=wrap;rounded=0;" parent="8gOSBzjKRAawWuFs5ZYo-119" vertex="1">
          <mxGeometry x="0.7142857142857143" y="24.5" width="42.857142857142854" height="21" as="geometry" />
        </mxCell>
        <mxCell id="8gOSBzjKRAawWuFs5ZYo-122" value="&lt;font style=&quot;font-size: 16px;&quot; face=&quot;Playwrite Netherland&quot;&gt;$$\mathcal{L_U}$$&lt;/font&gt;" style="text;html=1;align=center;verticalAlign=middle;whiteSpace=wrap;rounded=0;" parent="8gOSBzjKRAawWuFs5ZYo-117" vertex="1">
          <mxGeometry x="4.289999999999999" y="76" width="18.75" height="20" as="geometry" />
        </mxCell>
        <mxCell id="8gOSBzjKRAawWuFs5ZYo-123" value="&lt;font size=&quot;1&quot;&gt;&lt;b style=&quot;font-size: 18px;&quot;&gt;Client&lt;/b&gt;&lt;/font&gt;" style="text;html=1;align=center;verticalAlign=middle;resizable=0;points=[];autosize=1;strokeColor=none;fillColor=none;" parent="8gOSBzjKRAawWuFs5ZYo-117" vertex="1">
          <mxGeometry x="12.54" y="-4" width="70" height="30" as="geometry" />
        </mxCell>
        <mxCell id="8gOSBzjKRAawWuFs5ZYo-124" value="&lt;font style=&quot;font-size: 24px;&quot;&gt;$$\Sigma_2$$&lt;/font&gt;" style="rounded=0;whiteSpace=wrap;html=1;fillColor=#CCE5FF;strokeColor=none;strokeWidth=3;" parent="8gOSBzjKRAawWuFs5ZYo-117" vertex="1">
          <mxGeometry x="92.03571428571422" y="57.5" width="36.43" height="37" as="geometry" />
        </mxCell>
        <mxCell id="8gOSBzjKRAawWuFs5ZYo-125" value="" style="edgeStyle=orthogonalEdgeStyle;rounded=0;orthogonalLoop=1;jettySize=auto;html=1;endSize=2;dashed=1;jumpSize=6;" parent="8gOSBzjKRAawWuFs5ZYo-117" edge="1">
          <mxGeometry relative="1" as="geometry">
            <mxPoint x="72.75428571428577" y="76.00000000000023" as="sourcePoint" />
            <mxPoint x="92.03999999999999" y="76" as="targetPoint" />
          </mxGeometry>
        </mxCell>
        <mxCell id="8gOSBzjKRAawWuFs5ZYo-126" value="" style="group" parent="8gOSBzjKRAawWuFs5ZYo-116" vertex="1" connectable="0">
          <mxGeometry x="23.04" y="41" width="20.250000000000007" height="75" as="geometry" />
        </mxCell>
        <mxCell id="8gOSBzjKRAawWuFs5ZYo-127" value="" style="shape=cylinder;whiteSpace=wrap;html=1;boundedLbl=1;backgroundOutline=1;" parent="8gOSBzjKRAawWuFs5ZYo-126" vertex="1">
          <mxGeometry y="21.428571428571427" width="20" height="28.571428571428573" as="geometry" />
        </mxCell>
        <mxCell id="8gOSBzjKRAawWuFs5ZYo-128" value="&lt;font style=&quot;font-size: 16px;&quot;&gt;$$X_2$$&lt;/font&gt;" style="text;html=1;align=center;verticalAlign=middle;whiteSpace=wrap;rounded=0;" parent="8gOSBzjKRAawWuFs5ZYo-126" vertex="1">
          <mxGeometry x="-0.4999999999999929" y="50" width="20.5" height="30" as="geometry" />
        </mxCell>
        <mxCell id="8gOSBzjKRAawWuFs5ZYo-129" value="" style="edgeStyle=orthogonalEdgeStyle;rounded=0;orthogonalLoop=1;jettySize=auto;html=1;entryX=-0.051;entryY=0.538;entryDx=0;entryDy=0;entryPerimeter=0;" parent="8gOSBzjKRAawWuFs5ZYo-116" source="8gOSBzjKRAawWuFs5ZYo-127" target="8gOSBzjKRAawWuFs5ZYo-121" edge="1">
          <mxGeometry relative="1" as="geometry">
            <Array as="points" />
          </mxGeometry>
        </mxCell>
        <mxCell id="8gOSBzjKRAawWuFs5ZYo-130" value="" style="group" parent="1" vertex="1" connectable="0">
          <mxGeometry x="1118.7" y="420" width="76.47000000000003" height="70.0038461538461" as="geometry" />
        </mxCell>
        <mxCell id="8gOSBzjKRAawWuFs5ZYo-131" value="" style="group" parent="8gOSBzjKRAawWuFs5ZYo-130" vertex="1" connectable="0">
          <mxGeometry x="16.470000000000027" width="60" height="70.00384615384615" as="geometry" />
        </mxCell>
        <mxCell id="8gOSBzjKRAawWuFs5ZYo-132" value="" style="group" parent="8gOSBzjKRAawWuFs5ZYo-131" vertex="1" connectable="0">
          <mxGeometry y="16.153846153846153" width="60" height="53.85" as="geometry" />
        </mxCell>
        <mxCell id="8gOSBzjKRAawWuFs5ZYo-133" value="" style="rounded=1;whiteSpace=wrap;html=1;absoluteArcSize=1;arcSize=14;strokeWidth=2;labelPosition=center;verticalLabelPosition=top;align=center;verticalAlign=bottom;" parent="8gOSBzjKRAawWuFs5ZYo-132" vertex="1">
          <mxGeometry x="-39" width="100" height="53.85" as="geometry" />
        </mxCell>
        <mxCell id="8gOSBzjKRAawWuFs5ZYo-134" value="" style="group" parent="8gOSBzjKRAawWuFs5ZYo-132" vertex="1" connectable="0">
          <mxGeometry x="3.922922673656583" y="8.076923076923077" width="53.8440366972477" height="37.69230769230769" as="geometry" />
        </mxCell>
        <mxCell id="8gOSBzjKRAawWuFs5ZYo-135" value="" style="verticalLabelPosition=middle;verticalAlign=middle;html=1;shape=trapezoid;perimeter=trapezoidPerimeter;whiteSpace=wrap;size=0.23;arcSize=10;flipV=1;labelPosition=center;align=center;rotation=-90;fillColor=#b0e3e6;strokeColor=#0e8088;" parent="8gOSBzjKRAawWuFs5ZYo-134" vertex="1">
          <mxGeometry x="-7.6920052424639564" y="7.538461538461538" width="38.46002621231979" height="22.615384615384613" as="geometry" />
        </mxCell>
        <mxCell id="8gOSBzjKRAawWuFs5ZYo-136" value="" style="shape=cylinder;whiteSpace=wrap;html=1;boundedLbl=1;backgroundOutline=1;" parent="8gOSBzjKRAawWuFs5ZYo-132" vertex="1">
          <mxGeometry x="-32.65041284403652" y="17.636153846153775" width="13.01" height="18.58" as="geometry" />
        </mxCell>
        <mxCell id="8gOSBzjKRAawWuFs5ZYo-137" value="" style="edgeStyle=orthogonalEdgeStyle;rounded=0;orthogonalLoop=1;jettySize=auto;html=1;endSize=3;exitX=1.018;exitY=0.472;exitDx=0;exitDy=0;exitPerimeter=0;" parent="8gOSBzjKRAawWuFs5ZYo-132" source="8gOSBzjKRAawWuFs5ZYo-136" edge="1">
          <mxGeometry relative="1" as="geometry">
            <Array as="points" />
            <mxPoint x="-20.430412844036525" y="26.716153846153702" as="sourcePoint" />
            <mxPoint x="2.93958715596348" y="27.136153846153775" as="targetPoint" />
          </mxGeometry>
        </mxCell>
        <mxCell id="8gOSBzjKRAawWuFs5ZYo-138" value="" style="rounded=0;whiteSpace=wrap;html=1;fillColor=#CCE5FF;strokeColor=none;strokeWidth=3;" parent="8gOSBzjKRAawWuFs5ZYo-132" vertex="1">
          <mxGeometry x="33.52999999999997" y="16.926153846153852" width="20" height="20" as="geometry" />
        </mxCell>
        <mxCell id="8gOSBzjKRAawWuFs5ZYo-139" value="&lt;font size=&quot;1&quot;&gt;&lt;b style=&quot;font-size: 18px;&quot;&gt;Client&lt;/b&gt;&lt;/font&gt;" style="text;html=1;align=center;verticalAlign=middle;resizable=0;points=[];autosize=1;strokeColor=none;fillColor=none;" parent="8gOSBzjKRAawWuFs5ZYo-131" vertex="1">
          <mxGeometry x="-25.650412844036623" y="-10" width="70" height="30" as="geometry" />
        </mxCell>
        <mxCell id="8gOSBzjKRAawWuFs5ZYo-140" value="&lt;span style=&quot;font-family: &amp;quot;Playwrite Netherland&amp;quot;;&quot;&gt;&lt;font style=&quot;font-size: 12px;&quot;&gt;$$\mathcal{L_U}$$&lt;/font&gt;&lt;/span&gt;" style="text;html=1;align=center;verticalAlign=middle;whiteSpace=wrap;rounded=0;" parent="8gOSBzjKRAawWuFs5ZYo-130" vertex="1">
          <mxGeometry y="42.6438461538462" width="13.47" height="11.73" as="geometry" />
        </mxCell>
        <mxCell id="8gOSBzjKRAawWuFs5ZYo-141" value="" style="group" parent="1" vertex="1" connectable="0">
          <mxGeometry x="1228.9299999999998" y="420" width="76.47000000000003" height="70.0038461538461" as="geometry" />
        </mxCell>
        <mxCell id="8gOSBzjKRAawWuFs5ZYo-142" value="" style="group" parent="8gOSBzjKRAawWuFs5ZYo-141" vertex="1" connectable="0">
          <mxGeometry x="16.470000000000027" width="60" height="70.00384615384615" as="geometry" />
        </mxCell>
        <mxCell id="8gOSBzjKRAawWuFs5ZYo-143" value="" style="group" parent="8gOSBzjKRAawWuFs5ZYo-142" vertex="1" connectable="0">
          <mxGeometry y="16.153846153846153" width="60" height="53.85" as="geometry" />
        </mxCell>
        <mxCell id="8gOSBzjKRAawWuFs5ZYo-144" value="" style="rounded=1;whiteSpace=wrap;html=1;absoluteArcSize=1;arcSize=14;strokeWidth=2;labelPosition=center;verticalLabelPosition=top;align=center;verticalAlign=bottom;" parent="8gOSBzjKRAawWuFs5ZYo-143" vertex="1">
          <mxGeometry x="-39" width="100" height="53.85" as="geometry" />
        </mxCell>
        <mxCell id="8gOSBzjKRAawWuFs5ZYo-145" value="" style="group" parent="8gOSBzjKRAawWuFs5ZYo-143" vertex="1" connectable="0">
          <mxGeometry x="3.922922673656583" y="8.076923076923077" width="53.8440366972477" height="37.69230769230769" as="geometry" />
        </mxCell>
        <mxCell id="8gOSBzjKRAawWuFs5ZYo-146" value="" style="verticalLabelPosition=middle;verticalAlign=middle;html=1;shape=trapezoid;perimeter=trapezoidPerimeter;whiteSpace=wrap;size=0.23;arcSize=10;flipV=1;labelPosition=center;align=center;rotation=-90;fillColor=#b0e3e6;strokeColor=#0e8088;" parent="8gOSBzjKRAawWuFs5ZYo-145" vertex="1">
          <mxGeometry x="-7.6920052424639564" y="7.538461538461538" width="38.46002621231979" height="22.615384615384613" as="geometry" />
        </mxCell>
        <mxCell id="8gOSBzjKRAawWuFs5ZYo-147" value="" style="shape=cylinder;whiteSpace=wrap;html=1;boundedLbl=1;backgroundOutline=1;" parent="8gOSBzjKRAawWuFs5ZYo-143" vertex="1">
          <mxGeometry x="-32.65041284403652" y="17.636153846153775" width="13.01" height="18.58" as="geometry" />
        </mxCell>
        <mxCell id="8gOSBzjKRAawWuFs5ZYo-148" value="" style="edgeStyle=orthogonalEdgeStyle;rounded=0;orthogonalLoop=1;jettySize=auto;html=1;endSize=3;exitX=1.018;exitY=0.472;exitDx=0;exitDy=0;exitPerimeter=0;" parent="8gOSBzjKRAawWuFs5ZYo-143" source="8gOSBzjKRAawWuFs5ZYo-147" edge="1">
          <mxGeometry relative="1" as="geometry">
            <Array as="points" />
            <mxPoint x="-20.430412844036525" y="26.716153846153702" as="sourcePoint" />
            <mxPoint x="2.93958715596348" y="27.136153846153775" as="targetPoint" />
          </mxGeometry>
        </mxCell>
        <mxCell id="8gOSBzjKRAawWuFs5ZYo-149" value="" style="rounded=0;whiteSpace=wrap;html=1;fillColor=#CCE5FF;strokeColor=none;strokeWidth=3;" parent="8gOSBzjKRAawWuFs5ZYo-143" vertex="1">
          <mxGeometry x="33.52999999999997" y="16.926153846153852" width="20" height="20" as="geometry" />
        </mxCell>
        <mxCell id="8gOSBzjKRAawWuFs5ZYo-150" value="&lt;font size=&quot;1&quot;&gt;&lt;b style=&quot;font-size: 18px;&quot;&gt;Client&lt;/b&gt;&lt;/font&gt;" style="text;html=1;align=center;verticalAlign=middle;resizable=0;points=[];autosize=1;strokeColor=none;fillColor=none;" parent="8gOSBzjKRAawWuFs5ZYo-142" vertex="1">
          <mxGeometry x="-25.650412844036623" y="-10" width="70" height="30" as="geometry" />
        </mxCell>
        <mxCell id="8gOSBzjKRAawWuFs5ZYo-151" value="&lt;span style=&quot;font-family: &amp;quot;Playwrite Netherland&amp;quot;;&quot;&gt;&lt;font style=&quot;font-size: 12px;&quot;&gt;$$\mathcal{L_U}$$&lt;/font&gt;&lt;/span&gt;" style="text;html=1;align=center;verticalAlign=middle;whiteSpace=wrap;rounded=0;" parent="8gOSBzjKRAawWuFs5ZYo-141" vertex="1">
          <mxGeometry y="42.6438461538462" width="13.47" height="11.73" as="geometry" />
        </mxCell>
        <mxCell id="8gOSBzjKRAawWuFs5ZYo-152" value="" style="group" parent="1" vertex="1" connectable="0">
          <mxGeometry x="1120.75" y="500" width="76.47000000000003" height="70.0038461538461" as="geometry" />
        </mxCell>
        <mxCell id="8gOSBzjKRAawWuFs5ZYo-153" value="" style="group" parent="8gOSBzjKRAawWuFs5ZYo-152" vertex="1" connectable="0">
          <mxGeometry x="16.470000000000027" width="60" height="70.00384615384615" as="geometry" />
        </mxCell>
        <mxCell id="8gOSBzjKRAawWuFs5ZYo-154" value="" style="group" parent="8gOSBzjKRAawWuFs5ZYo-153" vertex="1" connectable="0">
          <mxGeometry y="16.153846153846153" width="60" height="53.85" as="geometry" />
        </mxCell>
        <mxCell id="8gOSBzjKRAawWuFs5ZYo-155" value="" style="rounded=1;whiteSpace=wrap;html=1;absoluteArcSize=1;arcSize=14;strokeWidth=2;labelPosition=center;verticalLabelPosition=top;align=center;verticalAlign=bottom;" parent="8gOSBzjKRAawWuFs5ZYo-154" vertex="1">
          <mxGeometry x="-39" width="100" height="53.85" as="geometry" />
        </mxCell>
        <mxCell id="8gOSBzjKRAawWuFs5ZYo-156" value="" style="group" parent="8gOSBzjKRAawWuFs5ZYo-154" vertex="1" connectable="0">
          <mxGeometry x="3.922922673656583" y="8.076923076923077" width="53.8440366972477" height="37.69230769230769" as="geometry" />
        </mxCell>
        <mxCell id="8gOSBzjKRAawWuFs5ZYo-157" value="" style="verticalLabelPosition=middle;verticalAlign=middle;html=1;shape=trapezoid;perimeter=trapezoidPerimeter;whiteSpace=wrap;size=0.23;arcSize=10;flipV=1;labelPosition=center;align=center;rotation=-90;fillColor=#b0e3e6;strokeColor=#0e8088;" parent="8gOSBzjKRAawWuFs5ZYo-156" vertex="1">
          <mxGeometry x="-7.6920052424639564" y="7.538461538461538" width="38.46002621231979" height="22.615384615384613" as="geometry" />
        </mxCell>
        <mxCell id="8gOSBzjKRAawWuFs5ZYo-158" value="" style="shape=cylinder;whiteSpace=wrap;html=1;boundedLbl=1;backgroundOutline=1;" parent="8gOSBzjKRAawWuFs5ZYo-154" vertex="1">
          <mxGeometry x="-32.65041284403652" y="17.636153846153775" width="13.01" height="18.58" as="geometry" />
        </mxCell>
        <mxCell id="8gOSBzjKRAawWuFs5ZYo-159" value="" style="edgeStyle=orthogonalEdgeStyle;rounded=0;orthogonalLoop=1;jettySize=auto;html=1;endSize=3;exitX=1.018;exitY=0.472;exitDx=0;exitDy=0;exitPerimeter=0;" parent="8gOSBzjKRAawWuFs5ZYo-154" source="8gOSBzjKRAawWuFs5ZYo-158" edge="1">
          <mxGeometry relative="1" as="geometry">
            <Array as="points" />
            <mxPoint x="-20.430412844036525" y="26.716153846153702" as="sourcePoint" />
            <mxPoint x="2.93958715596348" y="27.136153846153775" as="targetPoint" />
          </mxGeometry>
        </mxCell>
        <mxCell id="8gOSBzjKRAawWuFs5ZYo-160" value="" style="rounded=0;whiteSpace=wrap;html=1;fillColor=#CCE5FF;strokeColor=none;strokeWidth=3;" parent="8gOSBzjKRAawWuFs5ZYo-154" vertex="1">
          <mxGeometry x="33.52999999999997" y="16.926153846153852" width="20" height="20" as="geometry" />
        </mxCell>
        <mxCell id="8gOSBzjKRAawWuFs5ZYo-161" value="&lt;font size=&quot;1&quot;&gt;&lt;b style=&quot;font-size: 18px;&quot;&gt;Client&lt;/b&gt;&lt;/font&gt;" style="text;html=1;align=center;verticalAlign=middle;resizable=0;points=[];autosize=1;strokeColor=none;fillColor=none;" parent="8gOSBzjKRAawWuFs5ZYo-153" vertex="1">
          <mxGeometry x="-25.650412844036623" y="-10" width="70" height="30" as="geometry" />
        </mxCell>
        <mxCell id="8gOSBzjKRAawWuFs5ZYo-162" value="&lt;span style=&quot;font-family: &amp;quot;Playwrite Netherland&amp;quot;;&quot;&gt;&lt;font style=&quot;font-size: 12px;&quot;&gt;$$\mathcal{L_U}$$&lt;/font&gt;&lt;/span&gt;" style="text;html=1;align=center;verticalAlign=middle;whiteSpace=wrap;rounded=0;" parent="8gOSBzjKRAawWuFs5ZYo-152" vertex="1">
          <mxGeometry y="42.6438461538462" width="13.47" height="11.73" as="geometry" />
        </mxCell>
        <mxCell id="8gOSBzjKRAawWuFs5ZYo-163" value="" style="group" parent="1" vertex="1" connectable="0">
          <mxGeometry x="1539" y="420" width="76.47000000000003" height="70.0038461538461" as="geometry" />
        </mxCell>
        <mxCell id="8gOSBzjKRAawWuFs5ZYo-164" value="" style="group" parent="8gOSBzjKRAawWuFs5ZYo-163" vertex="1" connectable="0">
          <mxGeometry x="16.470000000000027" width="60" height="70.00384615384615" as="geometry" />
        </mxCell>
        <mxCell id="8gOSBzjKRAawWuFs5ZYo-165" value="" style="group" parent="8gOSBzjKRAawWuFs5ZYo-164" vertex="1" connectable="0">
          <mxGeometry y="16.153846153846153" width="60" height="53.85" as="geometry" />
        </mxCell>
        <mxCell id="8gOSBzjKRAawWuFs5ZYo-166" value="" style="rounded=1;whiteSpace=wrap;html=1;absoluteArcSize=1;arcSize=14;strokeWidth=2;labelPosition=center;verticalLabelPosition=top;align=center;verticalAlign=bottom;" parent="8gOSBzjKRAawWuFs5ZYo-165" vertex="1">
          <mxGeometry x="-39" width="100" height="53.85" as="geometry" />
        </mxCell>
        <mxCell id="8gOSBzjKRAawWuFs5ZYo-167" value="" style="group" parent="8gOSBzjKRAawWuFs5ZYo-165" vertex="1" connectable="0">
          <mxGeometry x="3.922922673656583" y="8.076923076923077" width="53.8440366972477" height="37.69230769230769" as="geometry" />
        </mxCell>
        <mxCell id="8gOSBzjKRAawWuFs5ZYo-168" value="" style="verticalLabelPosition=middle;verticalAlign=middle;html=1;shape=trapezoid;perimeter=trapezoidPerimeter;whiteSpace=wrap;size=0.23;arcSize=10;flipV=1;labelPosition=center;align=center;rotation=-90;fillColor=#b0e3e6;strokeColor=#0e8088;" parent="8gOSBzjKRAawWuFs5ZYo-167" vertex="1">
          <mxGeometry x="-7.6920052424639564" y="7.538461538461538" width="38.46002621231979" height="22.615384615384613" as="geometry" />
        </mxCell>
        <mxCell id="8gOSBzjKRAawWuFs5ZYo-169" value="" style="shape=cylinder;whiteSpace=wrap;html=1;boundedLbl=1;backgroundOutline=1;" parent="8gOSBzjKRAawWuFs5ZYo-165" vertex="1">
          <mxGeometry x="-32.65041284403652" y="17.636153846153775" width="13.01" height="18.58" as="geometry" />
        </mxCell>
        <mxCell id="8gOSBzjKRAawWuFs5ZYo-170" value="" style="edgeStyle=orthogonalEdgeStyle;rounded=0;orthogonalLoop=1;jettySize=auto;html=1;endSize=3;exitX=1.018;exitY=0.472;exitDx=0;exitDy=0;exitPerimeter=0;" parent="8gOSBzjKRAawWuFs5ZYo-165" source="8gOSBzjKRAawWuFs5ZYo-169" edge="1">
          <mxGeometry relative="1" as="geometry">
            <Array as="points" />
            <mxPoint x="-20.430412844036525" y="26.716153846153702" as="sourcePoint" />
            <mxPoint x="2.93958715596348" y="27.136153846153775" as="targetPoint" />
          </mxGeometry>
        </mxCell>
        <mxCell id="8gOSBzjKRAawWuFs5ZYo-171" value="" style="rounded=0;whiteSpace=wrap;html=1;fillColor=#CCE5FF;strokeColor=none;strokeWidth=3;" parent="8gOSBzjKRAawWuFs5ZYo-165" vertex="1">
          <mxGeometry x="33.52999999999997" y="16.926153846153852" width="20" height="20" as="geometry" />
        </mxCell>
        <mxCell id="8gOSBzjKRAawWuFs5ZYo-172" value="&lt;font size=&quot;1&quot;&gt;&lt;b style=&quot;font-size: 18px;&quot;&gt;Client&lt;/b&gt;&lt;/font&gt;" style="text;html=1;align=center;verticalAlign=middle;resizable=0;points=[];autosize=1;strokeColor=none;fillColor=none;" parent="8gOSBzjKRAawWuFs5ZYo-164" vertex="1">
          <mxGeometry x="-25.650412844036623" y="-10" width="70" height="30" as="geometry" />
        </mxCell>
        <mxCell id="8gOSBzjKRAawWuFs5ZYo-173" value="&lt;span style=&quot;font-family: &amp;quot;Playwrite Netherland&amp;quot;;&quot;&gt;&lt;font style=&quot;font-size: 12px;&quot;&gt;$$\mathcal{L_U}$$&lt;/font&gt;&lt;/span&gt;" style="text;html=1;align=center;verticalAlign=middle;whiteSpace=wrap;rounded=0;" parent="8gOSBzjKRAawWuFs5ZYo-163" vertex="1">
          <mxGeometry y="42.6438461538462" width="13.47" height="11.73" as="geometry" />
        </mxCell>
        <mxCell id="8gOSBzjKRAawWuFs5ZYo-174" value="" style="group" parent="1" vertex="1" connectable="0">
          <mxGeometry x="1649" y="420" width="76.47000000000003" height="70.0038461538461" as="geometry" />
        </mxCell>
        <mxCell id="8gOSBzjKRAawWuFs5ZYo-175" value="" style="group" parent="8gOSBzjKRAawWuFs5ZYo-174" vertex="1" connectable="0">
          <mxGeometry x="16.470000000000027" width="60" height="70.00384615384615" as="geometry" />
        </mxCell>
        <mxCell id="8gOSBzjKRAawWuFs5ZYo-176" value="" style="group" parent="8gOSBzjKRAawWuFs5ZYo-175" vertex="1" connectable="0">
          <mxGeometry y="16.153846153846153" width="60" height="53.85" as="geometry" />
        </mxCell>
        <mxCell id="8gOSBzjKRAawWuFs5ZYo-177" value="" style="rounded=1;whiteSpace=wrap;html=1;absoluteArcSize=1;arcSize=14;strokeWidth=2;labelPosition=center;verticalLabelPosition=top;align=center;verticalAlign=bottom;" parent="8gOSBzjKRAawWuFs5ZYo-176" vertex="1">
          <mxGeometry x="-39" width="100" height="53.85" as="geometry" />
        </mxCell>
        <mxCell id="8gOSBzjKRAawWuFs5ZYo-178" value="" style="group" parent="8gOSBzjKRAawWuFs5ZYo-176" vertex="1" connectable="0">
          <mxGeometry x="3.922922673656583" y="8.076923076923077" width="53.8440366972477" height="37.69230769230769" as="geometry" />
        </mxCell>
        <mxCell id="8gOSBzjKRAawWuFs5ZYo-179" value="" style="verticalLabelPosition=middle;verticalAlign=middle;html=1;shape=trapezoid;perimeter=trapezoidPerimeter;whiteSpace=wrap;size=0.23;arcSize=10;flipV=1;labelPosition=center;align=center;rotation=-90;fillColor=#b0e3e6;strokeColor=#0e8088;" parent="8gOSBzjKRAawWuFs5ZYo-178" vertex="1">
          <mxGeometry x="-7.6920052424639564" y="7.538461538461538" width="38.46002621231979" height="22.615384615384613" as="geometry" />
        </mxCell>
        <mxCell id="8gOSBzjKRAawWuFs5ZYo-180" value="" style="shape=cylinder;whiteSpace=wrap;html=1;boundedLbl=1;backgroundOutline=1;" parent="8gOSBzjKRAawWuFs5ZYo-176" vertex="1">
          <mxGeometry x="-32.65041284403652" y="17.636153846153775" width="13.01" height="18.58" as="geometry" />
        </mxCell>
        <mxCell id="8gOSBzjKRAawWuFs5ZYo-181" value="" style="edgeStyle=orthogonalEdgeStyle;rounded=0;orthogonalLoop=1;jettySize=auto;html=1;endSize=3;exitX=1.018;exitY=0.472;exitDx=0;exitDy=0;exitPerimeter=0;" parent="8gOSBzjKRAawWuFs5ZYo-176" source="8gOSBzjKRAawWuFs5ZYo-180" edge="1">
          <mxGeometry relative="1" as="geometry">
            <Array as="points" />
            <mxPoint x="-20.430412844036525" y="26.716153846153702" as="sourcePoint" />
            <mxPoint x="2.93958715596348" y="27.136153846153775" as="targetPoint" />
          </mxGeometry>
        </mxCell>
        <mxCell id="8gOSBzjKRAawWuFs5ZYo-182" value="" style="rounded=0;whiteSpace=wrap;html=1;fillColor=#CCE5FF;strokeColor=none;strokeWidth=3;" parent="8gOSBzjKRAawWuFs5ZYo-176" vertex="1">
          <mxGeometry x="33.52999999999997" y="16.926153846153852" width="20" height="20" as="geometry" />
        </mxCell>
        <mxCell id="8gOSBzjKRAawWuFs5ZYo-183" value="&lt;font size=&quot;1&quot;&gt;&lt;b style=&quot;font-size: 18px;&quot;&gt;Client&lt;/b&gt;&lt;/font&gt;" style="text;html=1;align=center;verticalAlign=middle;resizable=0;points=[];autosize=1;strokeColor=none;fillColor=none;" parent="8gOSBzjKRAawWuFs5ZYo-175" vertex="1">
          <mxGeometry x="-25.650412844036623" y="-10" width="70" height="30" as="geometry" />
        </mxCell>
        <mxCell id="8gOSBzjKRAawWuFs5ZYo-184" value="&lt;span style=&quot;font-family: &amp;quot;Playwrite Netherland&amp;quot;;&quot;&gt;&lt;font style=&quot;font-size: 12px;&quot;&gt;$$\mathcal{L_U}$$&lt;/font&gt;&lt;/span&gt;" style="text;html=1;align=center;verticalAlign=middle;whiteSpace=wrap;rounded=0;" parent="8gOSBzjKRAawWuFs5ZYo-174" vertex="1">
          <mxGeometry y="42.6438461538462" width="13.47" height="11.73" as="geometry" />
        </mxCell>
        <mxCell id="8gOSBzjKRAawWuFs5ZYo-185" value="" style="group" parent="1" vertex="1" connectable="0">
          <mxGeometry x="1540.98" y="501.69" width="76.47000000000003" height="70.0038461538461" as="geometry" />
        </mxCell>
        <mxCell id="8gOSBzjKRAawWuFs5ZYo-186" value="" style="group" parent="8gOSBzjKRAawWuFs5ZYo-185" vertex="1" connectable="0">
          <mxGeometry x="16.470000000000027" width="60" height="70.00384615384615" as="geometry" />
        </mxCell>
        <mxCell id="8gOSBzjKRAawWuFs5ZYo-187" value="" style="group" parent="8gOSBzjKRAawWuFs5ZYo-186" vertex="1" connectable="0">
          <mxGeometry y="16.153846153846153" width="60" height="53.85" as="geometry" />
        </mxCell>
        <mxCell id="8gOSBzjKRAawWuFs5ZYo-188" value="" style="rounded=1;whiteSpace=wrap;html=1;absoluteArcSize=1;arcSize=14;strokeWidth=2;labelPosition=center;verticalLabelPosition=top;align=center;verticalAlign=bottom;" parent="8gOSBzjKRAawWuFs5ZYo-187" vertex="1">
          <mxGeometry x="-39" width="100" height="53.85" as="geometry" />
        </mxCell>
        <mxCell id="8gOSBzjKRAawWuFs5ZYo-189" value="" style="group" parent="8gOSBzjKRAawWuFs5ZYo-187" vertex="1" connectable="0">
          <mxGeometry x="3.922922673656583" y="8.076923076923077" width="53.8440366972477" height="37.69230769230769" as="geometry" />
        </mxCell>
        <mxCell id="8gOSBzjKRAawWuFs5ZYo-190" value="" style="verticalLabelPosition=middle;verticalAlign=middle;html=1;shape=trapezoid;perimeter=trapezoidPerimeter;whiteSpace=wrap;size=0.23;arcSize=10;flipV=1;labelPosition=center;align=center;rotation=-90;fillColor=#b0e3e6;strokeColor=#0e8088;" parent="8gOSBzjKRAawWuFs5ZYo-189" vertex="1">
          <mxGeometry x="-7.6920052424639564" y="7.538461538461538" width="38.46002621231979" height="22.615384615384613" as="geometry" />
        </mxCell>
        <mxCell id="8gOSBzjKRAawWuFs5ZYo-191" value="" style="shape=cylinder;whiteSpace=wrap;html=1;boundedLbl=1;backgroundOutline=1;" parent="8gOSBzjKRAawWuFs5ZYo-187" vertex="1">
          <mxGeometry x="-32.65041284403652" y="17.636153846153775" width="13.01" height="18.58" as="geometry" />
        </mxCell>
        <mxCell id="8gOSBzjKRAawWuFs5ZYo-192" value="" style="edgeStyle=orthogonalEdgeStyle;rounded=0;orthogonalLoop=1;jettySize=auto;html=1;endSize=3;exitX=1.018;exitY=0.472;exitDx=0;exitDy=0;exitPerimeter=0;" parent="8gOSBzjKRAawWuFs5ZYo-187" source="8gOSBzjKRAawWuFs5ZYo-191" edge="1">
          <mxGeometry relative="1" as="geometry">
            <Array as="points" />
            <mxPoint x="-20.430412844036525" y="26.716153846153702" as="sourcePoint" />
            <mxPoint x="2.93958715596348" y="27.136153846153775" as="targetPoint" />
          </mxGeometry>
        </mxCell>
        <mxCell id="8gOSBzjKRAawWuFs5ZYo-193" value="" style="rounded=0;whiteSpace=wrap;html=1;fillColor=#CCE5FF;strokeColor=none;strokeWidth=3;" parent="8gOSBzjKRAawWuFs5ZYo-187" vertex="1">
          <mxGeometry x="33.52999999999997" y="16.926153846153852" width="20" height="20" as="geometry" />
        </mxCell>
        <mxCell id="8gOSBzjKRAawWuFs5ZYo-194" value="&lt;font size=&quot;1&quot;&gt;&lt;b style=&quot;font-size: 18px;&quot;&gt;Client&lt;/b&gt;&lt;/font&gt;" style="text;html=1;align=center;verticalAlign=middle;resizable=0;points=[];autosize=1;strokeColor=none;fillColor=none;" parent="8gOSBzjKRAawWuFs5ZYo-186" vertex="1">
          <mxGeometry x="-25.650412844036623" y="-10" width="70" height="30" as="geometry" />
        </mxCell>
        <mxCell id="8gOSBzjKRAawWuFs5ZYo-195" value="&lt;span style=&quot;font-family: &amp;quot;Playwrite Netherland&amp;quot;;&quot;&gt;&lt;font style=&quot;font-size: 12px;&quot;&gt;$$\mathcal{L_U}$$&lt;/font&gt;&lt;/span&gt;" style="text;html=1;align=center;verticalAlign=middle;whiteSpace=wrap;rounded=0;" parent="8gOSBzjKRAawWuFs5ZYo-185" vertex="1">
          <mxGeometry y="42.6438461538462" width="13.47" height="11.73" as="geometry" />
        </mxCell>
        <mxCell id="8gOSBzjKRAawWuFs5ZYo-196" value="" style="edgeStyle=orthogonalEdgeStyle;rounded=0;orthogonalLoop=1;jettySize=auto;html=1;strokeWidth=2;exitX=1;exitY=0.5;exitDx=0;exitDy=0;" parent="1" source="8gOSBzjKRAawWuFs5ZYo-212" edge="1">
          <mxGeometry relative="1" as="geometry">
            <mxPoint x="730" y="53" as="targetPoint" />
          </mxGeometry>
        </mxCell>
        <mxCell id="8gOSBzjKRAawWuFs5ZYo-197" value="" style="rounded=1;whiteSpace=wrap;html=1;strokeWidth=2;fillWeight=4;hachureGap=8;hachureAngle=45;fillColor=#1ba1e2;sketch=1;opacity=30;" parent="1" vertex="1">
          <mxGeometry x="416.67" y="-70" width="210" height="269" as="geometry" />
        </mxCell>
        <mxCell id="8gOSBzjKRAawWuFs5ZYo-198" value="ClusterServer" style="text;strokeColor=none;fillColor=none;html=1;fontSize=24;fontStyle=1;verticalAlign=middle;align=center;" parent="1" vertex="1">
          <mxGeometry x="436.17" y="-100" width="170" height="30" as="geometry" />
        </mxCell>
        <mxCell id="8gOSBzjKRAawWuFs5ZYo-199" value="3" style="text;strokeColor=none;fillColor=none;html=1;fontSize=24;fontStyle=1;verticalAlign=middle;align=center;" parent="1" vertex="1">
          <mxGeometry x="416.67" y="-70" width="20" height="40" as="geometry" />
        </mxCell>
        <mxCell id="8gOSBzjKRAawWuFs5ZYo-200" value="" style="rounded=1;whiteSpace=wrap;html=1;absoluteArcSize=1;arcSize=14;strokeWidth=2;labelPosition=center;verticalLabelPosition=top;align=center;verticalAlign=bottom;" parent="1" vertex="1">
          <mxGeometry x="440" y="-60" width="169" height="250" as="geometry" />
        </mxCell>
        <mxCell id="8gOSBzjKRAawWuFs5ZYo-201" value="" style="group" parent="1" vertex="1" connectable="0">
          <mxGeometry x="449" y="41.86538461538461" width="57.67" height="53.880769230769246" as="geometry" />
        </mxCell>
        <mxCell id="8gOSBzjKRAawWuFs5ZYo-202" value="" style="shape=cylinder;whiteSpace=wrap;html=1;boundedLbl=1;backgroundOutline=1;" parent="8gOSBzjKRAawWuFs5ZYo-201" vertex="1">
          <mxGeometry y="3.3570329670329677" width="20" height="23.95604395604396" as="geometry" />
        </mxCell>
        <mxCell id="8gOSBzjKRAawWuFs5ZYo-203" value="" style="edgeStyle=orthogonalEdgeStyle;rounded=0;orthogonalLoop=1;jettySize=auto;html=1;entryX=-0.051;entryY=0.538;entryDx=0;entryDy=0;entryPerimeter=0;" parent="8gOSBzjKRAawWuFs5ZYo-201" edge="1">
          <mxGeometry relative="1" as="geometry">
            <mxPoint x="20" y="15.251538461538466" as="sourcePoint" />
            <mxPoint x="54" y="15.251538461538466" as="targetPoint" />
            <Array as="points" />
          </mxGeometry>
        </mxCell>
        <mxCell id="8gOSBzjKRAawWuFs5ZYo-204" value="&lt;span style=&quot;font-size: 16px; white-space: normal;&quot;&gt;$$X_s$$&lt;/span&gt;" style="text;html=1;align=center;verticalAlign=middle;resizable=0;points=[];autosize=1;strokeColor=none;fillColor=none;" parent="1" vertex="1">
          <mxGeometry x="415.67" y="65.99615384615385" width="90" height="30" as="geometry" />
        </mxCell>
        <mxCell id="8gOSBzjKRAawWuFs5ZYo-205" value="" style="group" parent="1" vertex="1" connectable="0">
          <mxGeometry x="503.9957142857142" y="-56.25" width="100" height="70" as="geometry" />
        </mxCell>
        <mxCell id="8gOSBzjKRAawWuFs5ZYo-206" value="" style="verticalLabelPosition=middle;verticalAlign=middle;html=1;shape=trapezoid;perimeter=trapezoidPerimeter;whiteSpace=wrap;size=0.23;arcSize=10;flipV=1;labelPosition=center;align=center;rotation=-90;fillColor=#b0e3e6;strokeColor=#0e8088;" parent="8gOSBzjKRAawWuFs5ZYo-205" vertex="1">
          <mxGeometry x="-14.285714285714285" y="14" width="71.42857142857143" height="42" as="geometry" />
        </mxCell>
        <mxCell id="8gOSBzjKRAawWuFs5ZYo-207" value="" style="triangle;whiteSpace=wrap;html=1;fillColor=#e1d5e7;strokeColor=#9673a6;" parent="8gOSBzjKRAawWuFs5ZYo-205" vertex="1">
          <mxGeometry x="50" y="17.5" width="50" height="35" as="geometry" />
        </mxCell>
        <mxCell id="8gOSBzjKRAawWuFs5ZYo-208" value="&lt;font style=&quot;font-size: 24px;&quot;&gt;$$\omega$$&lt;/font&gt;&lt;span style=&quot;caret-color: rgb(0, 0, 0); color: rgb(0, 0, 0); font-family: -webkit-standard; font-size: medium; font-style: normal; font-variant-caps: normal; font-weight: 400; letter-spacing: normal; orphans: auto; text-align: start; text-indent: 0px; text-transform: none; white-space: normal; widows: auto; word-spacing: 0px; -webkit-text-size-adjust: auto; -webkit-text-stroke-width: 0px; text-decoration: none; display: inline !important; float: none;&quot;&gt;&lt;/span&gt;" style="text;html=1;align=center;verticalAlign=middle;whiteSpace=wrap;rounded=0;" parent="8gOSBzjKRAawWuFs5ZYo-205" vertex="1">
          <mxGeometry x="43.57142857142857" y="24.5" width="42.857142857142854" height="21" as="geometry" />
        </mxCell>
        <mxCell id="8gOSBzjKRAawWuFs5ZYo-209" value="&lt;font style=&quot;font-size: 24px;&quot;&gt;$$\theta_1$$&lt;/font&gt;" style="text;html=1;align=center;verticalAlign=middle;whiteSpace=wrap;rounded=0;" parent="8gOSBzjKRAawWuFs5ZYo-205" vertex="1">
          <mxGeometry x="0.004285714285799713" y="24.5" width="42.857142857142854" height="21" as="geometry" />
        </mxCell>
        <mxCell id="8gOSBzjKRAawWuFs5ZYo-210" value="" style="group" parent="1" vertex="1" connectable="0">
          <mxGeometry x="503.99571428571426" y="18" width="100" height="70" as="geometry" />
        </mxCell>
        <mxCell id="8gOSBzjKRAawWuFs5ZYo-211" value="" style="verticalLabelPosition=middle;verticalAlign=middle;html=1;shape=trapezoid;perimeter=trapezoidPerimeter;whiteSpace=wrap;size=0.23;arcSize=10;flipV=1;labelPosition=center;align=center;rotation=-90;fillColor=#b0e3e6;strokeColor=#0e8088;" parent="8gOSBzjKRAawWuFs5ZYo-210" vertex="1">
          <mxGeometry x="-14.285714285714285" y="14" width="71.42857142857143" height="42" as="geometry" />
        </mxCell>
        <mxCell id="8gOSBzjKRAawWuFs5ZYo-212" value="" style="triangle;whiteSpace=wrap;html=1;fillColor=#e1d5e7;strokeColor=#9673a6;" parent="8gOSBzjKRAawWuFs5ZYo-210" vertex="1">
          <mxGeometry x="50" y="17.5" width="50" height="35" as="geometry" />
        </mxCell>
        <mxCell id="8gOSBzjKRAawWuFs5ZYo-213" value="&lt;font style=&quot;font-size: 24px;&quot;&gt;$$\omega$$&lt;/font&gt;&lt;span style=&quot;caret-color: rgb(0, 0, 0); color: rgb(0, 0, 0); font-family: -webkit-standard; font-size: medium; font-style: normal; font-variant-caps: normal; font-weight: 400; letter-spacing: normal; orphans: auto; text-align: start; text-indent: 0px; text-transform: none; white-space: normal; widows: auto; word-spacing: 0px; -webkit-text-size-adjust: auto; -webkit-text-stroke-width: 0px; text-decoration: none; display: inline !important; float: none;&quot;&gt;&lt;/span&gt;" style="text;html=1;align=center;verticalAlign=middle;whiteSpace=wrap;rounded=0;" parent="8gOSBzjKRAawWuFs5ZYo-210" vertex="1">
          <mxGeometry x="43.57142857142857" y="24.5" width="42.857142857142854" height="21" as="geometry" />
        </mxCell>
        <mxCell id="8gOSBzjKRAawWuFs5ZYo-214" value="&lt;font style=&quot;font-size: 24px;&quot;&gt;$$\theta_2$$&lt;/font&gt;" style="text;html=1;align=center;verticalAlign=middle;whiteSpace=wrap;rounded=0;" parent="8gOSBzjKRAawWuFs5ZYo-210" vertex="1">
          <mxGeometry x="0.004285714285799713" y="24.5" width="42.857142857142854" height="21" as="geometry" />
        </mxCell>
        <mxCell id="8gOSBzjKRAawWuFs5ZYo-215" value="" style="group" parent="1" vertex="1" connectable="0">
          <mxGeometry x="503.99571428571426" y="115" width="100" height="70" as="geometry" />
        </mxCell>
        <mxCell id="8gOSBzjKRAawWuFs5ZYo-216" value="" style="verticalLabelPosition=middle;verticalAlign=middle;html=1;shape=trapezoid;perimeter=trapezoidPerimeter;whiteSpace=wrap;size=0.23;arcSize=10;flipV=1;labelPosition=center;align=center;rotation=-90;fillColor=#b0e3e6;strokeColor=#0e8088;" parent="8gOSBzjKRAawWuFs5ZYo-215" vertex="1">
          <mxGeometry x="-14.285714285714285" y="14" width="71.42857142857143" height="42" as="geometry" />
        </mxCell>
        <mxCell id="8gOSBzjKRAawWuFs5ZYo-217" value="" style="triangle;whiteSpace=wrap;html=1;fillColor=#e1d5e7;strokeColor=#9673a6;" parent="8gOSBzjKRAawWuFs5ZYo-215" vertex="1">
          <mxGeometry x="50" y="17.5" width="50" height="35" as="geometry" />
        </mxCell>
        <mxCell id="8gOSBzjKRAawWuFs5ZYo-218" value="&lt;font style=&quot;font-size: 24px;&quot;&gt;$$\omega$$&lt;/font&gt;&lt;span style=&quot;caret-color: rgb(0, 0, 0); color: rgb(0, 0, 0); font-family: -webkit-standard; font-size: medium; font-style: normal; font-variant-caps: normal; font-weight: 400; letter-spacing: normal; orphans: auto; text-align: start; text-indent: 0px; text-transform: none; white-space: normal; widows: auto; word-spacing: 0px; -webkit-text-size-adjust: auto; -webkit-text-stroke-width: 0px; text-decoration: none; display: inline !important; float: none;&quot;&gt;&lt;/span&gt;" style="text;html=1;align=center;verticalAlign=middle;whiteSpace=wrap;rounded=0;" parent="8gOSBzjKRAawWuFs5ZYo-215" vertex="1">
          <mxGeometry x="43.57142857142857" y="24.5" width="42.857142857142854" height="21" as="geometry" />
        </mxCell>
        <mxCell id="8gOSBzjKRAawWuFs5ZYo-219" value="&lt;font style=&quot;font-size: 24px;&quot;&gt;$$\theta_M$$&lt;/font&gt;" style="text;html=1;align=center;verticalAlign=middle;whiteSpace=wrap;rounded=0;" parent="8gOSBzjKRAawWuFs5ZYo-215" vertex="1">
          <mxGeometry x="0.004285714285799713" y="24.5" width="42.857142857142854" height="21" as="geometry" />
        </mxCell>
        <mxCell id="8gOSBzjKRAawWuFs5ZYo-220" value="&lt;b&gt;&lt;font style=&quot;font-size: 30px;&quot;&gt;...&lt;/font&gt;&lt;/b&gt;" style="text;html=1;align=center;verticalAlign=middle;whiteSpace=wrap;rounded=0;" parent="1" vertex="1">
          <mxGeometry x="497.67" y="85.93" width="34.29" height="21" as="geometry" />
        </mxCell>
        <mxCell id="8gOSBzjKRAawWuFs5ZYo-221" value="" style="edgeStyle=orthogonalEdgeStyle;rounded=0;orthogonalLoop=1;jettySize=auto;html=1;entryX=0;entryY=0.5;entryDx=0;entryDy=0;" parent="1" source="8gOSBzjKRAawWuFs5ZYo-202" target="8gOSBzjKRAawWuFs5ZYo-219" edge="1">
          <mxGeometry relative="1" as="geometry">
            <mxPoint x="500" y="150" as="targetPoint" />
            <Array as="points">
              <mxPoint x="480" y="57" />
              <mxPoint x="480" y="150" />
            </Array>
          </mxGeometry>
        </mxCell>
        <mxCell id="8gOSBzjKRAawWuFs5ZYo-222" value="" style="edgeStyle=orthogonalEdgeStyle;rounded=0;orthogonalLoop=1;jettySize=auto;html=1;entryX=0;entryY=0.5;entryDx=0;entryDy=0;" parent="1" source="8gOSBzjKRAawWuFs5ZYo-202" target="8gOSBzjKRAawWuFs5ZYo-209" edge="1">
          <mxGeometry relative="1" as="geometry">
            <mxPoint x="500" y="-21" as="targetPoint" />
            <Array as="points">
              <mxPoint x="480" y="57" />
              <mxPoint x="480" y="-21" />
            </Array>
          </mxGeometry>
        </mxCell>
        <mxCell id="8gOSBzjKRAawWuFs5ZYo-223" value="" style="edgeStyle=orthogonalEdgeStyle;rounded=0;orthogonalLoop=1;jettySize=auto;html=1;strokeWidth=2;exitX=1;exitY=0.5;exitDx=0;exitDy=0;" parent="1" edge="1">
          <mxGeometry relative="1" as="geometry">
            <mxPoint x="608" y="-21.349999999999994" as="sourcePoint" />
            <mxPoint x="730" y="-21" as="targetPoint" />
          </mxGeometry>
        </mxCell>
        <mxCell id="8gOSBzjKRAawWuFs5ZYo-224" value="" style="edgeStyle=orthogonalEdgeStyle;rounded=0;orthogonalLoop=1;jettySize=auto;html=1;strokeWidth=2;exitX=1;exitY=0.5;exitDx=0;exitDy=0;" parent="1" edge="1">
          <mxGeometry relative="1" as="geometry">
            <mxPoint x="608" y="150" as="sourcePoint" />
            <mxPoint x="730" y="150" as="targetPoint" />
          </mxGeometry>
        </mxCell>
        <mxCell id="8gOSBzjKRAawWuFs5ZYo-225" value="&lt;b&gt;&lt;font style=&quot;font-size: 30px;&quot;&gt;...&lt;/font&gt;&lt;/b&gt;" style="text;html=1;align=center;verticalAlign=middle;whiteSpace=wrap;rounded=0;" parent="1" vertex="1">
          <mxGeometry x="654.71" y="88" width="34.29" height="21" as="geometry" />
        </mxCell>
        <mxCell id="8gOSBzjKRAawWuFs5ZYo-226" value="" style="group" parent="1" vertex="1" connectable="0">
          <mxGeometry x="56.00000000000023" y="-20.004444444444495" width="219" height="170" as="geometry" />
        </mxCell>
        <mxCell id="8gOSBzjKRAawWuFs5ZYo-227" value="&lt;font style=&quot;font-size: 20px;&quot;&gt;&lt;b&gt;Global Model&lt;/b&gt;&lt;/font&gt;" style="rounded=1;whiteSpace=wrap;html=1;absoluteArcSize=1;arcSize=14;strokeWidth=2;labelPosition=center;verticalLabelPosition=top;align=center;verticalAlign=bottom;" parent="8gOSBzjKRAawWuFs5ZYo-226" vertex="1">
          <mxGeometry width="219" height="170" as="geometry" />
        </mxCell>
        <mxCell id="8gOSBzjKRAawWuFs5ZYo-228" value="" style="group" parent="8gOSBzjKRAawWuFs5ZYo-226" vertex="1" connectable="0">
          <mxGeometry x="87.19273034657643" y="19.437777777777775" width="129.58579881656806" height="90.7096296296296" as="geometry" />
        </mxCell>
        <mxCell id="8gOSBzjKRAawWuFs5ZYo-229" value="" style="verticalLabelPosition=middle;verticalAlign=middle;html=1;shape=trapezoid;perimeter=trapezoidPerimeter;whiteSpace=wrap;size=0.23;arcSize=10;flipV=1;labelPosition=center;align=center;rotation=-90;fillColor=#b0e3e6;strokeColor=#0e8088;" parent="8gOSBzjKRAawWuFs5ZYo-228" vertex="1">
          <mxGeometry x="-18.512256973795434" y="18.14192592592592" width="92.56128486897718" height="54.42577777777777" as="geometry" />
        </mxCell>
        <mxCell id="8gOSBzjKRAawWuFs5ZYo-230" value="" style="triangle;whiteSpace=wrap;html=1;fillColor=#e1d5e7;strokeColor=#9673a6;" parent="8gOSBzjKRAawWuFs5ZYo-228" vertex="1">
          <mxGeometry x="64.79289940828403" y="22.6774074074074" width="64.79289940828403" height="45.3548148148148" as="geometry" />
        </mxCell>
        <mxCell id="8gOSBzjKRAawWuFs5ZYo-231" value="&lt;span style=&quot;font-size: 26px; white-space: nowrap;&quot;&gt;$$\Theta$$&lt;/span&gt;" style="text;html=1;align=center;verticalAlign=middle;whiteSpace=wrap;rounded=0;" parent="8gOSBzjKRAawWuFs5ZYo-228" vertex="1">
          <mxGeometry x="0.9256128486897718" y="31.748370370370367" width="55.53677092138631" height="27.212888888888884" as="geometry" />
        </mxCell>
        <mxCell id="8gOSBzjKRAawWuFs5ZYo-232" value="&lt;span style=&quot;font-size: x-large;&quot;&gt;$$\omega$$&lt;/span&gt;" style="text;html=1;align=center;verticalAlign=middle;whiteSpace=wrap;rounded=0;" parent="8gOSBzjKRAawWuFs5ZYo-228" vertex="1">
          <mxGeometry x="56.46238377007607" y="31.748370370370367" width="55.53677092138631" height="27.212888888888884" as="geometry" />
        </mxCell>
        <mxCell id="8gOSBzjKRAawWuFs5ZYo-233" value="&lt;span style=&quot;font-family: &amp;quot;Playwrite Netherland&amp;quot;; font-size: 16px;&quot;&gt;$$\mathcal{L_X}$$&lt;/span&gt;" style="text;html=1;align=center;verticalAlign=middle;whiteSpace=wrap;rounded=0;" parent="8gOSBzjKRAawWuFs5ZYo-226" vertex="1">
          <mxGeometry x="53.45414201183432" y="64.79259259259258" width="24.297337278106507" height="25.91703703703703" as="geometry" />
        </mxCell>
        <mxCell id="8gOSBzjKRAawWuFs5ZYo-234" value="" style="group" parent="8gOSBzjKRAawWuFs5ZYo-226" vertex="1" connectable="0">
          <mxGeometry x="11.662721893491126" y="32.39629629629629" width="46.6508875739645" height="64.79259259259258" as="geometry" />
        </mxCell>
        <mxCell id="8gOSBzjKRAawWuFs5ZYo-235" value="" style="shape=cylinder;whiteSpace=wrap;html=1;boundedLbl=1;backgroundOutline=1;" parent="8gOSBzjKRAawWuFs5ZYo-234" vertex="1">
          <mxGeometry y="27.768253968253962" width="25.91715976331361" height="37.02433862433862" as="geometry" />
        </mxCell>
        <mxCell id="8gOSBzjKRAawWuFs5ZYo-236" value="" style="shape=cylinder;whiteSpace=wrap;html=1;boundedLbl=1;backgroundOutline=1;" parent="8gOSBzjKRAawWuFs5ZYo-234" vertex="1">
          <mxGeometry width="25.91715976331361" height="37.02433862433862" as="geometry" />
        </mxCell>
        <mxCell id="8gOSBzjKRAawWuFs5ZYo-237" value="" style="edgeStyle=orthogonalEdgeStyle;rounded=0;orthogonalLoop=1;jettySize=auto;html=1;entryX=-0.051;entryY=0.538;entryDx=0;entryDy=0;entryPerimeter=0;" parent="8gOSBzjKRAawWuFs5ZYo-226" edge="1">
          <mxGeometry relative="1" as="geometry">
            <mxPoint x="38.875739644970416" y="64.79259259259258" as="sourcePoint" />
            <mxPoint x="82.93491124260355" y="64.79259259259258" as="targetPoint" />
            <Array as="points" />
          </mxGeometry>
        </mxCell>
        <mxCell id="8gOSBzjKRAawWuFs5ZYo-238" value="" style="group" parent="8gOSBzjKRAawWuFs5ZYo-226" vertex="1" connectable="0">
          <mxGeometry x="128.37999999999988" y="90.71444444444438" width="36.43" height="61.379999999999995" as="geometry" />
        </mxCell>
        <mxCell id="8gOSBzjKRAawWuFs5ZYo-239" value="&lt;span style=&quot;font-size: 24px;&quot;&gt;$$\Sigma$$&lt;/span&gt;" style="rounded=0;whiteSpace=wrap;html=1;fillColor=#CCE5FF;strokeColor=none;strokeWidth=3;align=center;" parent="8gOSBzjKRAawWuFs5ZYo-238" vertex="1">
          <mxGeometry y="24.379999999999995" width="36.43" height="37" as="geometry" />
        </mxCell>
        <mxCell id="8gOSBzjKRAawWuFs5ZYo-240" value="" style="edgeStyle=orthogonalEdgeStyle;rounded=0;orthogonalLoop=1;jettySize=auto;html=1;endSize=2;dashed=1;jumpSize=6;entryX=0.48;entryY=-0.064;entryDx=0;entryDy=0;entryPerimeter=0;" parent="8gOSBzjKRAawWuFs5ZYo-238" target="8gOSBzjKRAawWuFs5ZYo-239" edge="1">
          <mxGeometry relative="1" as="geometry">
            <mxPoint x="17.50428571428577" as="sourcePoint" />
            <mxPoint x="19.284285714285772" y="0.5199999999999818" as="targetPoint" />
          </mxGeometry>
        </mxCell>
        <mxCell id="8gOSBzjKRAawWuFs5ZYo-241" value="&lt;span style=&quot;font-size: 16px; white-space: normal;&quot;&gt;$$X_s$$&lt;/span&gt;" style="text;html=1;align=center;verticalAlign=middle;resizable=0;points=[];autosize=1;strokeColor=none;fillColor=none;" parent="8gOSBzjKRAawWuFs5ZYo-226" vertex="1">
          <mxGeometry x="-19.62000000000012" y="94.18444444444452" width="90" height="30" as="geometry" />
        </mxCell>
        <mxCell id="8gOSBzjKRAawWuFs5ZYo-242" value="&lt;span style=&quot;font-size: 16px; white-space: normal;&quot;&gt;$$Y_s$$&lt;/span&gt;" style="text;html=1;align=center;verticalAlign=middle;resizable=0;points=[];autosize=1;strokeColor=none;fillColor=none;" parent="8gOSBzjKRAawWuFs5ZYo-226" vertex="1">
          <mxGeometry x="-17.62000000000012" y="10.124444444444496" width="90" height="30" as="geometry" />
        </mxCell>
        <mxCell id="8gOSBzjKRAawWuFs5ZYo-243" value="1" style="text;strokeColor=none;fillColor=none;html=1;fontSize=24;fontStyle=1;verticalAlign=middle;align=center;" parent="1" vertex="1">
          <mxGeometry x="49" y="-70" width="20" height="40" as="geometry" />
        </mxCell>
      </root>
    </mxGraphModel>
  </diagram>
</mxfile>
